<svg width="8225" height="1432" viewBox="0 0 8225 1432" fill="none" xmlns="http://www.w3.org/2000/svg">
<path fill-rule="evenodd" clip-rule="evenodd" d="M1600.13 0.253401C1598.11 0.42106 1591.32 0.955934 1585.04 1.44255C1543.84 4.63462 1496.37 14.1143 1453.99 27.6129L1441.2 31.6866L1424.82 42.7587L1408.45 53.8315L1398.35 44.5629C1391.01 37.8287 1386.14 34.1271 1380.56 31.0242C1339.47 8.19717 1296.74 10.317 1253.91 37.3053C1232.07 51.0688 1208.24 73.6554 1188.07 99.7064C1184.47 104.344 1181.24 108.25 1180.88 108.387C1180.53 108.524 1177.17 106.272 1173.43 103.383C1160.79 93.6166 1136.05 78.5273 1136.05 80.5859C1136.05 81.9958 1146.84 95.3808 1159.17 109.267C1169.62 121.042 1170.96 122.862 1170.19 124.303C1169.47 125.643 1162.39 136.926 1161.69 137.842C1161.58 137.985 1156.23 134.157 1149.79 129.336C1094.65 88.0291 1042.34 63.5492 987.61 53.4341C966.134 49.465 954.677 48.4967 929.294 48.5057C899.054 48.5155 881.495 50.4366 851.577 57.0089C840.347 59.4755 811.164 67.6516 811.694 68.1823C812.311 68.8023 833.809 71.7302 846.51 72.9251C862.255 74.4062 887.129 75.8325 897.233 75.8325C904.661 75.8333 907.465 77.0102 902.198 77.9164C900.503 78.2084 893.061 79.7222 885.659 81.2802C804.928 98.2776 741.663 123.589 706.446 152.981C700.023 158.341 690.39 168.182 690.983 168.778C691.109 168.904 694.866 167.896 699.331 166.539C722.198 159.585 756.021 152.614 755.959 154.866C755.948 155.256 752.572 157.414 748.458 159.663C731.398 168.987 705.103 187.67 686.131 203.947C674.118 214.254 652.637 236.144 643.223 247.676C614.643 282.684 596.264 320.634 589.226 359.175C587.52 368.52 585.517 384.76 585.517 389.25C585.517 390.093 592.083 380.92 600.109 368.866C613.227 349.164 623.244 335.077 629.071 328.14L631.132 325.686L631.157 335.909C631.204 354.323 629.184 381.711 626.245 402.541C623.418 422.571 619.728 436.788 614.884 446.308L613.074 449.867L619.889 443.791C629.348 435.359 636.953 429.315 644.921 423.899C652.014 419.078 664.516 412.4 665.187 413.074C665.402 413.288 663.202 419.66 660.301 427.233C652.796 446.824 646.669 466.505 644.778 477.092C644.512 478.582 644.755 480.244 645.359 481.073C646.329 482.403 646.567 482.408 648.974 481.16C653.357 478.888 666.802 464.526 677.573 450.613C679.053 448.702 680.526 447.137 680.846 447.137C681.167 447.137 681.857 451.829 682.38 457.565C685.866 495.802 698.34 534.174 715.527 559.526C725.2 573.797 728.879 582.887 732.709 601.991C735.543 616.125 736.727 631.685 736.111 646.692C735.548 660.387 734.431 667.36 731.109 677.904C728.642 685.736 728.88 689.541 732.08 693.354C737.527 699.846 746.878 702.642 762.911 702.576C775.716 702.523 784.04 700.826 790.702 696.912C792.987 695.568 795.634 694.722 797.554 694.722C802.82 694.722 805.257 697.235 810.341 707.908C812.837 713.148 815.831 718.454 816.994 719.698C820.643 723.6 827.265 724.267 834.543 721.467C835.919 720.937 835.904 721.129 834.337 724.061C832.618 727.277 832.184 730.604 833.269 732.248C834.124 733.544 838.155 735.503 846.677 738.764C858.715 743.371 864.909 747.014 869.132 751.97C871.21 754.409 874.299 757.115 875.997 757.984C884.238 762.2 900.371 763.264 912.354 760.384C928.974 756.388 942.837 745.624 952.73 729.033L956.056 723.454L962.51 729.85C971.744 739.004 977.918 747.482 979.803 753.597C980.312 755.25 979.409 755.885 969.508 760.846C963.54 763.837 958.527 766.403 958.369 766.547C958.211 766.691 959.298 772.853 960.783 780.238L963.483 793.666L958.527 800.942C945.256 820.424 929.628 849.36 923.956 864.949C920.22 875.218 917.649 885.958 916.997 894.012C916.451 900.76 916.332 901.09 914.296 901.543C894.437 905.961 872.203 916.172 849.805 931.16C834.386 941.478 835.512 940.785 836.336 939.448C836.711 938.84 847.411 926.428 860.115 911.866C872.818 897.303 883.192 885.139 883.168 884.833C883.111 884.138 567.715 645.55 566.441 645.238C565.93 645.113 526.732 688.541 479.335 741.744C431.938 794.948 391.81 839.766 390.162 841.34L387.165 844.203L390.862 838.753C393.806 834.412 445.114 763.475 479.543 716.145L485.837 707.493L452.028 674.552C433.433 656.434 418.12 641.743 417.999 641.903C417.689 642.312 345.037 855.405 344.745 856.761C344.599 857.434 370.893 875.793 411.793 903.575C485.191 953.431 499.024 963.028 490.907 958.465C489.337 957.581 486.227 955.856 483.997 954.628C481.766 953.401 448.442 933.648 409.943 910.733C371.445 887.816 339.455 868.879 338.857 868.648C338.106 868.36 336.615 870.974 334.053 877.071C329.243 888.52 326.97 896.907 326.97 903.207C326.97 908.078 327.084 908.357 330.029 910.691C337.861 916.899 373.868 939.572 419.541 967.057C500.383 1015.71 638.518 1096.01 660.286 1107.01L665.32 1109.55L670.073 1106.05C676.746 1101.12 688.345 1090.28 701.987 1076.22C714.337 1063.5 714.598 1064.04 703.483 1079.33C690.495 1097.21 676.918 1111.88 667.291 1118.45C657.679 1125.02 613.147 1166.33 552.187 1225.24C524.337 1252.16 512.761 1264.02 497.165 1281.62C491.73 1287.76 487.357 1291.04 486.49 1289.63C486.253 1289.25 487.86 1285.3 490.062 1280.85C495.643 1269.56 497.602 1263.3 498.068 1255.24C498.393 1249.62 498.194 1247.84 496.994 1245.61C494.954 1241.81 491.136 1239.63 486.502 1239.63C478.634 1239.63 471.698 1244.51 460.492 1257.91C449.395 1271.19 447.136 1274.39 443.11 1282.57C438.307 1292.33 436.781 1299.77 437.358 1310.62L437.805 1319.04L432.137 1312.95C425.382 1305.7 420.479 1302.38 413.724 1300.51C405.36 1298.19 397.979 1300.36 394.93 1306.05C393.802 1308.15 393.391 1311.43 393.056 1321.01L392.626 1333.28L389.931 1328.51C382.932 1316.12 371.963 1309.15 359.477 1309.15C345.953 1309.15 334.218 1320.17 329.784 1337.02C327.802 1344.56 327.984 1358.36 330.175 1366.74C331.104 1370.3 331.741 1373.34 331.589 1373.49C331.436 1373.64 315.012 1374.31 295.09 1374.97C121.818 1380.75 20.7139 1387.63 2.15564 1394.92C-0.718548 1396.05 -0.718548 1398.09 2.15564 1399.22C31.475 1410.72 263.7 1421 627.928 1426.92C846.047 1430.46 980.346 1431.37 1284.9 1431.37C1556.63 1431.37 1676.36 1430.74 1829.72 1428.48C1862.02 1428 1912.15 1427.51 1941.13 1427.39C1970.11 1427.27 1994.18 1426.95 1994.63 1426.67C1995.07 1426.4 2013.75 1425.79 2036.14 1425.31C2341.68 1418.89 2513.34 1411.06 2559.88 1401.45C2568.76 1399.61 2571.25 1398.45 2570.5 1396.5C2566.75 1386.7 2382.07 1376.32 2107.03 1370.45C2068.91 1369.64 2064.2 1369.39 2060.54 1368.01C2051.77 1364.71 2049.31 1364.37 2034.44 1364.42C2023.9 1364.45 2017.46 1364.88 2011.6 1365.95C2002.3 1367.66 1974.4 1368.52 1963.11 1367.46L1956.21 1366.81L1983.5 1350.77C1998.51 1341.95 2014.31 1333.02 2018.61 1330.93C2050.88 1315.23 2071.39 1289.41 2076.92 1257.54C2078.58 1247.94 2078.11 1225.31 2076.04 1215.92C2067.14 1175.42 2038.8 1141.07 2005.89 1130.89C1996.11 1127.86 1990.78 1127.81 1981.83 1130.68C1970.81 1134.2 1958.34 1137.15 1945.79 1139.2C1936.81 1140.66 1931.55 1140.97 1915.36 1140.97C1892.63 1140.98 1885.29 1140.06 1854.78 1133.36C1844.33 1131.07 1833.6 1128.96 1830.92 1128.68C1828.24 1128.4 1826.05 1127.89 1826.05 1127.54C1826.05 1127.19 1827.98 1126.27 1830.33 1125.49C1849.87 1119.07 1870.53 1102.16 1883.51 1081.96L1887.35 1075.99L1889.99 1079.5C1901.31 1094.51 1908.07 1109 1907.5 1116.98C1907.29 1119.91 1907.56 1120.45 1910.09 1122.16C1915.84 1126.05 1921.01 1127.18 1932.9 1127.15C1944.46 1127.11 1951.25 1126.03 1963.48 1122.28L1970.01 1120.27L2060.95 1042.25L2151.89 964.226L2242.83 871.987L2333.77 779.748L2334.01 775.238L2334.26 770.727L2329.12 775.216C2326.29 777.685 2292.05 807.256 2253.02 840.93C2192.17 893.431 2179.43 904.815 2163.6 920.819C2153.44 931.084 2144.74 939.482 2144.27 939.482C2143.79 939.482 2140.83 935.71 2137.68 931.099C2121.84 907.9 2097.74 884.514 2069.51 864.947C2037.16 842.525 1992.61 821.013 1947.86 806.212C1931.43 800.778 1911.82 795.141 1911.26 795.695C1911.12 795.843 1950.82 823.748 1999.49 857.705C2048.17 891.662 2091.51 921.935 2095.82 924.978C2103.68 930.532 2106.7 932.968 2102.13 930.078C2100.79 929.226 2093.26 924.615 2085.41 919.833C2074.19 912.994 1852.11 774.178 1845.13 769.635C1843.52 768.59 1838 772.427 1761.22 827.857C1716.01 860.494 1678.93 887.093 1678.82 886.965C1678.7 886.836 1649.59 838.383 1614.13 779.291L1549.65 671.85L1557.33 656.468L1565.01 641.086L1555.86 638.054C1550.82 636.387 1546.41 634.854 1546.05 634.648C1544.46 633.741 1553.86 621.759 1558.13 619.251C1564.83 615.312 1569.21 616.492 1599.31 630.324C1631.15 644.957 1642.53 648.136 1665.81 648.913C1685.04 649.554 1708.33 646.06 1722.74 640.371C1726.3 638.966 1726.85 638.377 1728.52 634.257C1732.49 624.479 1735.55 621.259 1741.19 620.94C1746.53 620.638 1748.65 617.886 1757.66 599.54C1772.19 569.962 1775.49 566.658 1783.26 573.846C1787.55 577.806 1791.61 579.93 1798.15 581.628C1805.27 583.479 1818.88 584.646 1825.95 584.013L1831.96 583.474L1831.43 578.952C1830.49 570.946 1826.06 549.31 1822.75 536.548C1818.05 518.463 1818.52 510.374 1824.98 497.435C1829.8 487.782 1834.73 481.625 1848.9 467.583C1863.81 452.795 1867.46 447.777 1873.82 433.279C1881.1 416.693 1888.31 392.875 1892.99 369.945C1894.38 363.145 1895.64 357.459 1895.79 357.308C1896.42 356.669 1897.87 361.111 1903.16 379.869C1906.23 390.777 1909 399.702 1909.3 399.702C1910.93 399.702 1916.59 382.333 1918.92 370.186C1921.77 355.315 1922.56 342.319 1921.99 319.65C1921.7 308.125 1921.17 296.574 1920.81 293.98C1920.37 290.766 1920.44 289.353 1921.02 289.548C1923.41 290.341 1936.5 323.552 1942.91 345.088L1946.33 356.59L1947.37 352.997C1949.27 346.458 1950.84 331.09 1950.84 319.078C1950.84 295.06 1947.24 271.676 1938.26 237.419C1937.56 234.754 1937.12 232.443 1937.28 232.285C1937.43 232.127 1946.21 249.029 1956.78 269.846C1967.35 290.662 1978.18 311.857 1980.83 316.944L1985.66 326.194L1986.19 319.888C1987 310.3 1986.83 285.085 1985.88 274.98C1981.44 227.459 1964.89 188.81 1937.01 160.852C1920.13 143.923 1900.4 131.795 1877.36 124.181C1872 122.407 1871.99 122.401 1866.55 114.342C1851.31 91.7479 1833.39 72.2757 1813.24 56.402C1804.14 49.2369 1786.39 38.0593 1774.67 32.1185C1742.58 15.8498 1709.45 6.47724 1667.29 1.74352C1656.69 0.553552 1609.21 -0.499838 1600.13 0.253401ZM1251.46 92.1609C1237.09 97.3992 1196.95 117.947 1195.05 121.035C1194.78 121.465 1196.91 124.172 1199.78 127.05L1205 132.285L1209.88 126.489C1219.48 115.079 1235.81 102.081 1250.43 94.208C1257.66 90.315 1257.92 89.8055 1251.46 92.1609ZM1170.91 135.871L1164.58 140.19L1175.58 148.694C1181.63 153.37 1186.95 157.32 1187.4 157.469C1187.84 157.619 1189.02 156.068 1190.01 154.024C1191.61 150.728 1191.69 150.07 1190.7 148.218C1189.02 145.067 1178.99 132.019 1178.05 131.77C1177.6 131.65 1174.39 133.495 1170.91 135.871ZM1312.13 157.025C1303.1 169.224 1294.34 184.067 1287.5 198.737C1283.92 206.414 1277.15 223.268 1277.15 224.494C1277.15 224.978 1278.6 228.079 1280.38 231.385C1288.88 247.179 1301.32 281.332 1306.83 304.013C1314.19 334.244 1316.67 357.447 1316.02 389.888C1315.76 402.707 1315.16 416.14 1314.69 419.739C1311.28 445.413 1306.17 468.046 1298.8 490.032C1296.38 497.252 1294.28 503.712 1294.13 504.386C1293.99 505.061 1293.66 505.797 1293.4 506.022C1293.15 506.247 1291.96 508.899 1290.77 511.916C1284.99 526.536 1273.82 548.867 1263.85 565.725C1244.14 599.046 1211.5 639.004 1188.68 657.756C1184.26 661.387 1183.42 661.019 1180.94 654.356C1175.49 639.743 1183.65 619.841 1203.67 598.923C1207.08 595.366 1209.17 592.704 1208.33 593.009C1207.48 593.314 1203.38 595.574 1199.22 598.033C1178.84 610.062 1165.45 623.933 1160.35 638.32C1158 644.962 1157.53 655.504 1159.28 662.231C1161.78 671.837 1167.87 682.292 1176.34 691.523C1181.86 697.533 1181.34 697.621 1192.81 688.773L1203.03 680.885L1210.12 685.349C1216.08 689.104 1218.06 690.948 1222.58 696.956C1228.52 704.853 1238.01 720.402 1244.56 732.95C1263.68 769.624 1279.12 819.438 1288.11 873.462L1290.73 889.185L1291.32 881.415C1295.77 822.672 1310.74 764.927 1333.17 719.986C1349.41 687.436 1368.3 661.31 1393.91 635.98L1404.33 625.676L1404.44 607.151C1404.52 595.32 1404.85 588.625 1405.38 588.625C1405.83 588.625 1410.9 591.108 1416.65 594.143C1422.39 597.178 1427.33 599.418 1427.63 599.121C1428.38 598.368 1442.72 560.017 1442.72 558.76C1442.72 558.197 1439.36 553.737 1435.25 548.85C1395 500.985 1359.74 439.298 1340.64 383.345C1327.51 344.876 1321.97 314.309 1321.59 278.251C1321.23 244.326 1324.93 219.78 1334.72 191.055C1337.66 182.429 1339.61 177.546 1345.36 164.439C1346.27 162.364 1323.16 151.996 1317.52 151.948C1316.46 151.939 1314.58 153.711 1312.13 157.025ZM1301.38 1121.92L1301.82 1135.48L1299.16 1138.52C1286.83 1152.6 1222.13 1170.56 1138.5 1183.13C1133.25 1183.92 1099.7 1188.81 1098.12 1189.01C1097.68 1189.07 1098.41 1189.4 1099.76 1189.74C1103.37 1190.67 1127.71 1190.67 1138.5 1189.75C1176.98 1186.45 1225.33 1177.52 1264.36 1166.49C1270.04 1164.89 1274.84 1163.57 1275.02 1163.57C1275.2 1163.57 1275.79 1166.06 1276.33 1169.09C1277.62 1176.43 1278.03 1194.28 1277.09 1202.42C1273.04 1237.55 1256.95 1278.66 1230.04 1322.64C1226.42 1328.56 1209.7 1353.66 1204.67 1360.74C1203.56 1362.29 1204.86 1362.31 1290.3 1362.31L1377.06 1362.3L1372.98 1358.91C1365.54 1352.73 1353.99 1340.36 1348.49 1332.68C1345.5 1328.51 1340.74 1320.31 1337.89 1314.47C1328.79 1295.75 1325.36 1282.67 1321.61 1252.31C1320.92 1246.7 1311.47 1180.95 1310.9 1177.79L1310.45 1175.23L1316.84 1176.35C1320.35 1176.97 1326.35 1177.85 1330.16 1178.31C1333.98 1178.77 1338.38 1179.31 1339.95 1179.51C1341.52 1179.71 1347.94 1180.25 1354.22 1180.71C1360.5 1181.18 1368.58 1181.77 1372.17 1182.04C1382.33 1182.79 1429.57 1182.97 1442.72 1182.31C1460.22 1181.43 1472.07 1180.72 1475.75 1180.33C1477.54 1180.14 1485.07 1179.37 1492.47 1178.63C1499.87 1177.89 1506.11 1177.09 1506.33 1176.86C1506.56 1176.62 1504.36 1176.66 1501.44 1176.94C1478.15 1179.18 1420.68 1179.32 1401.12 1177.19C1361.48 1172.87 1332.36 1164.71 1310.23 1151.7L1306.76 1149.66L1304.53 1133.1C1301.12 1107.76 1300.89 1106.92 1301.38 1121.92ZM717.595 1229.92C692.835 1279.4 653.323 1312.48 604.387 1324.7C588.982 1328.55 577.848 1329.89 560.772 1329.95L545.407 1330.01L549.5 1331.8C555.972 1334.65 567.839 1337.58 580.126 1339.36C586.356 1340.26 591.678 1341.23 591.952 1341.5C592.225 1341.78 592.433 1347.84 592.413 1354.96C592.393 1362.09 592.577 1367.81 592.821 1367.66C593.065 1367.51 610.515 1367.16 631.598 1366.87C652.682 1366.58 676.538 1366.18 684.613 1366C692.687 1365.81 722.783 1365.41 751.492 1365.1C780.202 1364.8 815.703 1364.32 830.385 1364.04L857.079 1363.54L853.803 1358.34C846.019 1346.01 840.246 1331.01 836.435 1313.24L834.418 1303.83L834.347 1323.35L834.276 1342.86L832.098 1342.31C830.9 1342.01 827.505 1340.2 824.554 1338.28C801.639 1323.41 764.394 1282.1 731.917 1235.54C727.054 1228.57 722.797 1222.54 722.458 1222.15C722.119 1221.75 719.931 1225.25 717.595 1229.92Z" fill="#272262"/>
<path d="M3066.01 836.693L3067.75 717.896C3067.75 709.743 3076.18 704.502 3093.04 702.173C3109.9 699.261 3123.86 697.806 3134.9 697.806L3168.91 700.426C3191 703.92 3202.05 710.035 3202.05 718.77L3198.56 992.177C3186.94 1000.33 3163.39 1008.48 3127.93 1016.63C3093.04 1024.21 3052.93 1027.99 3007.58 1027.99C2923.28 1027.99 2855.26 1000.62 2803.52 945.881C2751.78 891.141 2725.91 810.779 2725.91 704.794C2725.91 614.531 2751.2 541.157 2801.78 484.67C2852.36 428.184 2922.41 399.94 3011.94 399.94C3052.64 399.94 3089.27 404.017 3121.82 412.169C3154.96 419.74 3177.63 430.222 3189.84 443.616C3190.42 448.274 3190.71 457.009 3190.71 469.821C3190.71 482.632 3186.35 500.976 3177.63 524.852C3168.91 548.145 3159.03 565.615 3147.98 577.262C3136.94 588.909 3128.8 594.732 3123.57 594.732C3118.92 594.732 3113.68 592.694 3107.87 588.617C3102.64 583.959 3091.88 579.3 3075.6 574.641C3059.32 569.4 3043.63 566.78 3028.51 566.78C2992.47 566.78 2963.11 578.427 2940.44 601.72C2918.34 625.013 2907.3 661.118 2907.3 710.035C2907.3 758.951 2918.63 796.22 2941.31 821.843C2964.56 846.884 2991.01 859.404 3020.66 859.404C3050.9 859.404 3066.01 851.834 3066.01 836.693Z" fill="url(#paint0_linear_34_17)"/>
<path d="M3066.01 836.693L3067.75 717.896C3067.75 709.743 3076.18 704.502 3093.04 702.173C3109.9 699.261 3123.86 697.806 3134.9 697.806L3168.91 700.426C3191 703.92 3202.05 710.035 3202.05 718.77L3198.56 992.177C3186.94 1000.33 3163.39 1008.48 3127.93 1016.63C3093.04 1024.21 3052.93 1027.99 3007.58 1027.99C2923.28 1027.99 2855.26 1000.62 2803.52 945.881C2751.78 891.141 2725.91 810.779 2725.91 704.794C2725.91 614.531 2751.2 541.157 2801.78 484.67C2852.36 428.184 2922.41 399.94 3011.94 399.94C3052.64 399.94 3089.27 404.017 3121.82 412.169C3154.96 419.74 3177.63 430.222 3189.84 443.616C3190.42 448.274 3190.71 457.009 3190.71 469.821C3190.71 482.632 3186.35 500.976 3177.63 524.852C3168.91 548.145 3159.03 565.615 3147.98 577.262C3136.94 588.909 3128.8 594.732 3123.57 594.732C3118.92 594.732 3113.68 592.694 3107.87 588.617C3102.64 583.959 3091.88 579.3 3075.6 574.641C3059.32 569.4 3043.63 566.78 3028.51 566.78C2992.47 566.78 2963.11 578.427 2940.44 601.72C2918.34 625.013 2907.3 661.118 2907.3 710.035C2907.3 758.951 2918.63 796.22 2941.31 821.843C2964.56 846.884 2991.01 859.404 3020.66 859.404C3050.9 859.404 3066.01 851.834 3066.01 836.693Z" fill="url(#paint1_linear_34_17)"/>
<path d="M3066.01 836.693L3067.75 717.896C3067.75 709.743 3076.18 704.502 3093.04 702.173C3109.9 699.261 3123.86 697.806 3134.9 697.806L3168.91 700.426C3191 703.92 3202.05 710.035 3202.05 718.77L3198.56 992.177C3186.94 1000.33 3163.39 1008.48 3127.93 1016.63C3093.04 1024.21 3052.93 1027.99 3007.58 1027.99C2923.28 1027.99 2855.26 1000.62 2803.52 945.881C2751.78 891.141 2725.91 810.779 2725.91 704.794C2725.91 614.531 2751.2 541.157 2801.78 484.67C2852.36 428.184 2922.41 399.94 3011.94 399.94C3052.64 399.94 3089.27 404.017 3121.82 412.169C3154.96 419.74 3177.63 430.222 3189.84 443.616C3190.42 448.274 3190.71 457.009 3190.71 469.821C3190.71 482.632 3186.35 500.976 3177.63 524.852C3168.91 548.145 3159.03 565.615 3147.98 577.262C3136.94 588.909 3128.8 594.732 3123.57 594.732C3118.92 594.732 3113.68 592.694 3107.87 588.617C3102.64 583.959 3091.88 579.3 3075.6 574.641C3059.32 569.4 3043.63 566.78 3028.51 566.78C2992.47 566.78 2963.11 578.427 2940.44 601.72C2918.34 625.013 2907.3 661.118 2907.3 710.035C2907.3 758.951 2918.63 796.22 2941.31 821.843C2964.56 846.884 2991.01 859.404 3020.66 859.404C3050.9 859.404 3066.01 851.834 3066.01 836.693Z" fill="#74397B"/>
<path d="M3543.98 1027.99C3462.59 1027.99 3396.02 1001.2 3344.28 947.628C3293.12 894.053 3267.54 816.02 3267.54 713.529C3267.54 610.455 3293.41 532.422 3345.15 479.429C3397.47 426.437 3464.62 399.94 3546.59 399.94C3629.15 399.94 3695.71 426.145 3746.29 478.556C3796.87 530.384 3822.16 609.29 3822.16 715.276C3822.16 820.679 3796.29 899.294 3744.55 951.122C3692.81 1002.37 3625.95 1027.99 3543.98 1027.99ZM3544.85 567.653C3516.94 567.653 3493.4 580.465 3474.21 606.087C3455.61 631.71 3446.31 667.815 3446.31 714.402C3446.31 760.407 3455.32 795.929 3473.34 820.97C3491.36 845.428 3514.91 857.657 3543.98 857.657C3573.63 857.657 3597.46 845.137 3615.49 820.096C3634.09 795.056 3643.39 759.242 3643.39 712.655C3643.39 666.068 3633.8 630.254 3614.61 605.214C3596.01 580.174 3572.76 567.653 3544.85 567.653Z" fill="url(#paint2_linear_34_17)"/>
<path d="M3543.98 1027.99C3462.59 1027.99 3396.02 1001.2 3344.28 947.628C3293.12 894.053 3267.54 816.02 3267.54 713.529C3267.54 610.455 3293.41 532.422 3345.15 479.429C3397.47 426.437 3464.62 399.94 3546.59 399.94C3629.15 399.94 3695.71 426.145 3746.29 478.556C3796.87 530.384 3822.16 609.29 3822.16 715.276C3822.16 820.679 3796.29 899.294 3744.55 951.122C3692.81 1002.37 3625.95 1027.99 3543.98 1027.99ZM3544.85 567.653C3516.94 567.653 3493.4 580.465 3474.21 606.087C3455.61 631.71 3446.31 667.815 3446.31 714.402C3446.31 760.407 3455.32 795.929 3473.34 820.97C3491.36 845.428 3514.91 857.657 3543.98 857.657C3573.63 857.657 3597.46 845.137 3615.49 820.096C3634.09 795.056 3643.39 759.242 3643.39 712.655C3643.39 666.068 3633.8 630.254 3614.61 605.214C3596.01 580.174 3572.76 567.653 3544.85 567.653Z" fill="url(#paint3_linear_34_17)"/>
<path d="M3543.98 1027.99C3462.59 1027.99 3396.02 1001.2 3344.28 947.628C3293.12 894.053 3267.54 816.02 3267.54 713.529C3267.54 610.455 3293.41 532.422 3345.15 479.429C3397.47 426.437 3464.62 399.94 3546.59 399.94C3629.15 399.94 3695.71 426.145 3746.29 478.556C3796.87 530.384 3822.16 609.29 3822.16 715.276C3822.16 820.679 3796.29 899.294 3744.55 951.122C3692.81 1002.37 3625.95 1027.99 3543.98 1027.99ZM3544.85 567.653C3516.94 567.653 3493.4 580.465 3474.21 606.087C3455.61 631.71 3446.31 667.815 3446.31 714.402C3446.31 760.407 3455.32 795.929 3473.34 820.97C3491.36 845.428 3514.91 857.657 3543.98 857.657C3573.63 857.657 3597.46 845.137 3615.49 820.096C3634.09 795.056 3643.39 759.242 3643.39 712.655C3643.39 666.068 3633.8 630.254 3614.61 605.214C3596.01 580.174 3572.76 567.653 3544.85 567.653Z" fill="#74397B"/>
<path d="M4154.67 1005.28C4154.67 1016.93 4125.89 1022.75 4068.33 1022.75C4010.78 1022.75 3982 1016.93 3982 1005.28V566.78H3877.35C3867.47 566.78 3860.49 553.386 3856.42 526.599C3854.68 513.787 3853.81 500.685 3853.81 487.291C3853.81 473.897 3854.68 460.794 3856.42 447.983C3860.49 421.196 3867.47 407.802 3877.35 407.802H4256.7C4266.58 407.802 4273.56 421.196 4277.63 447.983C4279.37 460.794 4280.24 473.897 4280.24 487.291C4280.24 500.685 4279.37 513.787 4277.63 526.599C4273.56 553.386 4266.58 566.78 4256.7 566.78H4154.67V1005.28Z" fill="url(#paint4_linear_34_17)"/>
<path d="M4154.67 1005.28C4154.67 1016.93 4125.89 1022.75 4068.33 1022.75C4010.78 1022.75 3982 1016.93 3982 1005.28V566.78H3877.35C3867.47 566.78 3860.49 553.386 3856.42 526.599C3854.68 513.787 3853.81 500.685 3853.81 487.291C3853.81 473.897 3854.68 460.794 3856.42 447.983C3860.49 421.196 3867.47 407.802 3877.35 407.802H4256.7C4266.58 407.802 4273.56 421.196 4277.63 447.983C4279.37 460.794 4280.24 473.897 4280.24 487.291C4280.24 500.685 4279.37 513.787 4277.63 526.599C4273.56 553.386 4266.58 566.78 4256.7 566.78H4154.67V1005.28Z" fill="url(#paint5_linear_34_17)"/>
<path d="M4154.67 1005.28C4154.67 1016.93 4125.89 1022.75 4068.33 1022.75C4010.78 1022.75 3982 1016.93 3982 1005.28V566.78H3877.35C3867.47 566.78 3860.49 553.386 3856.42 526.599C3854.68 513.787 3853.81 500.685 3853.81 487.291C3853.81 473.897 3854.68 460.794 3856.42 447.983C3860.49 421.196 3867.47 407.802 3877.35 407.802H4256.7C4266.58 407.802 4273.56 421.196 4277.63 447.983C4279.37 460.794 4280.24 473.897 4280.24 487.291C4280.24 500.685 4279.37 513.787 4277.63 526.599C4273.56 553.386 4266.58 566.78 4256.7 566.78H4154.67V1005.28Z" fill="#74397B"/>
<path d="M4588.91 1027.99C4507.52 1027.99 4440.95 1001.2 4389.21 947.628C4338.05 894.053 4312.47 816.02 4312.47 713.529C4312.47 610.455 4338.34 532.422 4390.08 479.429C4442.4 426.437 4509.55 399.94 4591.52 399.94C4674.08 399.94 4740.65 426.145 4791.22 478.556C4841.8 530.384 4867.09 609.29 4867.09 715.276C4867.09 820.679 4841.22 899.294 4789.48 951.122C4737.74 1002.37 4670.88 1027.99 4588.91 1027.99ZM4589.78 567.653C4561.87 567.653 4538.33 580.465 4519.14 606.087C4500.54 631.71 4491.24 667.815 4491.24 714.402C4491.24 760.407 4500.25 795.929 4518.27 820.97C4536.29 845.428 4559.84 857.657 4588.91 857.657C4618.56 857.657 4642.39 845.137 4660.42 820.096C4679.02 795.056 4688.32 759.242 4688.32 712.655C4688.32 666.068 4678.73 630.254 4659.54 605.214C4640.94 580.174 4617.69 567.653 4589.78 567.653Z" fill="url(#paint6_linear_34_17)"/>
<path d="M4588.91 1027.99C4507.52 1027.99 4440.95 1001.2 4389.21 947.628C4338.05 894.053 4312.47 816.02 4312.47 713.529C4312.47 610.455 4338.34 532.422 4390.08 479.429C4442.4 426.437 4509.55 399.94 4591.52 399.94C4674.08 399.94 4740.65 426.145 4791.22 478.556C4841.8 530.384 4867.09 609.29 4867.09 715.276C4867.09 820.679 4841.22 899.294 4789.48 951.122C4737.74 1002.37 4670.88 1027.99 4588.91 1027.99ZM4589.78 567.653C4561.87 567.653 4538.33 580.465 4519.14 606.087C4500.54 631.71 4491.24 667.815 4491.24 714.402C4491.24 760.407 4500.25 795.929 4518.27 820.97C4536.29 845.428 4559.84 857.657 4588.91 857.657C4618.56 857.657 4642.39 845.137 4660.42 820.096C4679.02 795.056 4688.32 759.242 4688.32 712.655C4688.32 666.068 4678.73 630.254 4659.54 605.214C4640.94 580.174 4617.69 567.653 4589.78 567.653Z" fill="url(#paint7_linear_34_17)"/>
<path d="M4588.91 1027.99C4507.52 1027.99 4440.95 1001.2 4389.21 947.628C4338.05 894.053 4312.47 816.02 4312.47 713.529C4312.47 610.455 4338.34 532.422 4390.08 479.429C4442.4 426.437 4509.55 399.94 4591.52 399.94C4674.08 399.94 4740.65 426.145 4791.22 478.556C4841.8 530.384 4867.09 609.29 4867.09 715.276C4867.09 820.679 4841.22 899.294 4789.48 951.122C4737.74 1002.37 4670.88 1027.99 4588.91 1027.99ZM4589.78 567.653C4561.87 567.653 4538.33 580.465 4519.14 606.087C4500.54 631.71 4491.24 667.815 4491.24 714.402C4491.24 760.407 4500.25 795.929 4518.27 820.97C4536.29 845.428 4559.84 857.657 4588.91 857.657C4618.56 857.657 4642.39 845.137 4660.42 820.096C4679.02 795.056 4688.32 759.242 4688.32 712.655C4688.32 666.068 4678.73 630.254 4659.54 605.214C4640.94 580.174 4617.69 567.653 4589.78 567.653Z" fill="#74397B"/>
<path d="M5186.52 399.94C5228.96 399.94 5266.16 406.055 5298.14 418.284C5330.69 429.931 5346.97 445.945 5346.97 466.327C5346.97 486.708 5339.12 512.04 5323.43 542.322C5308.31 572.021 5295.52 586.87 5285.06 586.87C5282.15 586.87 5278.66 585.415 5274.59 582.503C5271.11 579.009 5262.38 575.515 5248.43 572.021C5235.06 567.944 5223.43 565.906 5213.55 565.906C5179.83 565.906 5152.51 577.844 5131.58 601.72C5111.23 625.596 5101.05 662.283 5101.05 711.782C5101.05 760.698 5111.52 797.094 5132.45 820.97C5153.96 844.846 5180.99 856.783 5213.55 856.783C5226.92 856.783 5241.75 855.036 5258.02 851.542C5274.88 847.466 5286.8 841.934 5293.78 834.946C5294.94 833.781 5297.27 833.199 5300.75 833.199C5304.24 833.199 5310.64 839.896 5319.94 853.289C5329.82 866.101 5338.83 883.28 5346.97 904.826C5355.11 925.79 5359.18 942.096 5359.18 953.742C5359.18 976.454 5341.74 994.506 5306.86 1007.9C5271.98 1021.29 5230.7 1027.99 5183.03 1027.99C5106.29 1027.99 5043.21 1000.91 4993.79 946.754C4944.38 892.597 4919.67 816.311 4919.67 717.896C4919.67 618.899 4944.96 541.157 4995.54 484.67C5046.7 428.184 5110.36 399.94 5186.52 399.94Z" fill="url(#paint8_linear_34_17)"/>
<path d="M5186.52 399.94C5228.96 399.94 5266.16 406.055 5298.14 418.284C5330.69 429.931 5346.97 445.945 5346.97 466.327C5346.97 486.708 5339.12 512.04 5323.43 542.322C5308.31 572.021 5295.52 586.87 5285.06 586.87C5282.15 586.87 5278.66 585.415 5274.59 582.503C5271.11 579.009 5262.38 575.515 5248.43 572.021C5235.06 567.944 5223.43 565.906 5213.55 565.906C5179.83 565.906 5152.51 577.844 5131.58 601.72C5111.23 625.596 5101.05 662.283 5101.05 711.782C5101.05 760.698 5111.52 797.094 5132.45 820.97C5153.96 844.846 5180.99 856.783 5213.55 856.783C5226.92 856.783 5241.75 855.036 5258.02 851.542C5274.88 847.466 5286.8 841.934 5293.78 834.946C5294.94 833.781 5297.27 833.199 5300.75 833.199C5304.24 833.199 5310.64 839.896 5319.94 853.289C5329.82 866.101 5338.83 883.28 5346.97 904.826C5355.11 925.79 5359.18 942.096 5359.18 953.742C5359.18 976.454 5341.74 994.506 5306.86 1007.9C5271.98 1021.29 5230.7 1027.99 5183.03 1027.99C5106.29 1027.99 5043.21 1000.91 4993.79 946.754C4944.38 892.597 4919.67 816.311 4919.67 717.896C4919.67 618.899 4944.96 541.157 4995.54 484.67C5046.7 428.184 5110.36 399.94 5186.52 399.94Z" fill="url(#paint9_linear_34_17)"/>
<path d="M5186.52 399.94C5228.96 399.94 5266.16 406.055 5298.14 418.284C5330.69 429.931 5346.97 445.945 5346.97 466.327C5346.97 486.708 5339.12 512.04 5323.43 542.322C5308.31 572.021 5295.52 586.87 5285.06 586.87C5282.15 586.87 5278.66 585.415 5274.59 582.503C5271.11 579.009 5262.38 575.515 5248.43 572.021C5235.06 567.944 5223.43 565.906 5213.55 565.906C5179.83 565.906 5152.51 577.844 5131.58 601.72C5111.23 625.596 5101.05 662.283 5101.05 711.782C5101.05 760.698 5111.52 797.094 5132.45 820.97C5153.96 844.846 5180.99 856.783 5213.55 856.783C5226.92 856.783 5241.75 855.036 5258.02 851.542C5274.88 847.466 5286.8 841.934 5293.78 834.946C5294.94 833.781 5297.27 833.199 5300.75 833.199C5304.24 833.199 5310.64 839.896 5319.94 853.289C5329.82 866.101 5338.83 883.28 5346.97 904.826C5355.11 925.79 5359.18 942.096 5359.18 953.742C5359.18 976.454 5341.74 994.506 5306.86 1007.9C5271.98 1021.29 5230.7 1027.99 5183.03 1027.99C5106.29 1027.99 5043.21 1000.91 4993.79 946.754C4944.38 892.597 4919.67 816.311 4919.67 717.896C4919.67 618.899 4944.96 541.157 4995.54 484.67C5046.7 428.184 5110.36 399.94 5186.52 399.94Z" fill="#272262"/>
<path d="M5835.8 1021C5785.22 1021 5757.9 1012.85 5753.83 996.544L5725.05 883.862H5586.39L5561.1 992.177C5557.62 1010.23 5529.71 1019.26 5477.39 1019.26C5449.48 1019.26 5428.84 1017.8 5415.47 1014.89C5402.1 1011.39 5395.41 1008.77 5395.41 1007.03L5549.77 415.663C5549.77 411.005 5589.59 408.675 5669.24 408.675C5748.89 408.675 5788.71 411.005 5788.71 415.663L5939.57 1007.9C5939.57 1011.98 5926.2 1015.18 5899.46 1017.51C5872.72 1019.84 5851.5 1021 5835.8 1021ZM5608.19 772.927H5699.76L5660.52 592.111H5655.28L5608.19 772.927Z" fill="url(#paint10_linear_34_17)"/>
<path d="M5835.8 1021C5785.22 1021 5757.9 1012.85 5753.83 996.544L5725.05 883.862H5586.39L5561.1 992.177C5557.62 1010.23 5529.71 1019.26 5477.39 1019.26C5449.48 1019.26 5428.84 1017.8 5415.47 1014.89C5402.1 1011.39 5395.41 1008.77 5395.41 1007.03L5549.77 415.663C5549.77 411.005 5589.59 408.675 5669.24 408.675C5748.89 408.675 5788.71 411.005 5788.71 415.663L5939.57 1007.9C5939.57 1011.98 5926.2 1015.18 5899.46 1017.51C5872.72 1019.84 5851.5 1021 5835.8 1021ZM5608.19 772.927H5699.76L5660.52 592.111H5655.28L5608.19 772.927Z" fill="url(#paint11_linear_34_17)"/>
<path d="M5835.8 1021C5785.22 1021 5757.9 1012.85 5753.83 996.544L5725.05 883.862H5586.39L5561.1 992.177C5557.62 1010.23 5529.71 1019.26 5477.39 1019.26C5449.48 1019.26 5428.84 1017.8 5415.47 1014.89C5402.1 1011.39 5395.41 1008.77 5395.41 1007.03L5549.77 415.663C5549.77 411.005 5589.59 408.675 5669.24 408.675C5748.89 408.675 5788.71 411.005 5788.71 415.663L5939.57 1007.9C5939.57 1011.98 5926.2 1015.18 5899.46 1017.51C5872.72 1019.84 5851.5 1021 5835.8 1021ZM5608.19 772.927H5699.76L5660.52 592.111H5655.28L5608.19 772.927Z" fill="#272262"/>
<path d="M6607.81 1020.13C6556.06 1020.13 6530.19 1014.31 6530.19 1002.66L6511.88 652.383L6405.49 1007.03C6403.16 1014.01 6383.4 1017.51 6346.19 1017.51C6308.98 1017.51 6289.8 1014.31 6288.63 1007.9L6178.76 648.889L6166.55 997.418C6165.96 1006.15 6154.92 1012.27 6133.41 1015.76C6111.9 1018.67 6093.88 1020.13 6079.34 1020.13C6065.39 1020.13 6051.73 1019.26 6038.35 1017.51C6010.45 1013.43 5996.79 1006.15 5997.37 995.671L6017.43 427.892C6017.43 413.916 6052.89 406.928 6123.82 406.928C6144.74 406.928 6170.32 408.675 6200.56 412.169C6230.79 415.081 6247.65 421.196 6251.14 430.513L6348.81 705.667L6434.27 429.64C6439.5 414.499 6479.61 406.928 6554.61 406.928C6576.12 406.928 6601.7 408.675 6631.35 412.169C6661.58 415.081 6676.7 420.613 6676.7 428.766L6701.99 1001.79C6701.99 1008.19 6690.65 1012.85 6667.98 1015.76C6645.3 1018.67 6625.25 1020.13 6607.81 1020.13Z" fill="url(#paint12_linear_34_17)"/>
<path d="M6607.81 1020.13C6556.06 1020.13 6530.19 1014.31 6530.19 1002.66L6511.88 652.383L6405.49 1007.03C6403.16 1014.01 6383.4 1017.51 6346.19 1017.51C6308.98 1017.51 6289.8 1014.31 6288.63 1007.9L6178.76 648.889L6166.55 997.418C6165.96 1006.15 6154.92 1012.27 6133.41 1015.76C6111.9 1018.67 6093.88 1020.13 6079.34 1020.13C6065.39 1020.13 6051.73 1019.26 6038.35 1017.51C6010.45 1013.43 5996.79 1006.15 5997.37 995.671L6017.43 427.892C6017.43 413.916 6052.89 406.928 6123.82 406.928C6144.74 406.928 6170.32 408.675 6200.56 412.169C6230.79 415.081 6247.65 421.196 6251.14 430.513L6348.81 705.667L6434.27 429.64C6439.5 414.499 6479.61 406.928 6554.61 406.928C6576.12 406.928 6601.7 408.675 6631.35 412.169C6661.58 415.081 6676.7 420.613 6676.7 428.766L6701.99 1001.79C6701.99 1008.19 6690.65 1012.85 6667.98 1015.76C6645.3 1018.67 6625.25 1020.13 6607.81 1020.13Z" fill="url(#paint13_linear_34_17)"/>
<path d="M6607.81 1020.13C6556.06 1020.13 6530.19 1014.31 6530.19 1002.66L6511.88 652.383L6405.49 1007.03C6403.16 1014.01 6383.4 1017.51 6346.19 1017.51C6308.98 1017.51 6289.8 1014.31 6288.63 1007.9L6178.76 648.889L6166.55 997.418C6165.96 1006.15 6154.92 1012.27 6133.41 1015.76C6111.9 1018.67 6093.88 1020.13 6079.34 1020.13C6065.39 1020.13 6051.73 1019.26 6038.35 1017.51C6010.45 1013.43 5996.79 1006.15 5997.37 995.671L6017.43 427.892C6017.43 413.916 6052.89 406.928 6123.82 406.928C6144.74 406.928 6170.32 408.675 6200.56 412.169C6230.79 415.081 6247.65 421.196 6251.14 430.513L6348.81 705.667L6434.27 429.64C6439.5 414.499 6479.61 406.928 6554.61 406.928C6576.12 406.928 6601.7 408.675 6631.35 412.169C6661.58 415.081 6676.7 420.613 6676.7 428.766L6701.99 1001.79C6701.99 1008.19 6690.65 1012.85 6667.98 1015.76C6645.3 1018.67 6625.25 1020.13 6607.81 1020.13Z" fill="#272262"/>
<path d="M6864.39 1021C6811.48 1021 6785.03 1015.18 6785.03 1003.53V437.501C6785.03 417.702 6794.04 407.802 6812.06 407.802H6965.54C7051.59 407.802 7113.5 425.563 7151.29 461.086C7189.66 496.608 7208.85 548.145 7208.85 615.696C7208.85 671.6 7190.82 722.846 7154.78 769.433C7136.76 792.726 7110.3 811.361 7075.42 825.337C7040.54 839.313 6999.84 846.301 6953.34 846.301V1002.66C6953.34 1009.65 6942.29 1014.6 6920.2 1017.51C6898.69 1019.84 6880.08 1021 6864.39 1021ZM6953.34 559.792V697.806H6964.67C6985.02 697.806 7002.17 691.4 7016.12 678.588C7030.08 665.777 7037.05 647.725 7037.05 624.431C7037.05 601.138 7032.11 584.541 7022.23 574.641C7012.93 564.742 6996.07 559.792 6971.65 559.792H6953.34Z" fill="url(#paint14_linear_34_17)"/>
<path d="M6864.39 1021C6811.48 1021 6785.03 1015.18 6785.03 1003.53V437.501C6785.03 417.702 6794.04 407.802 6812.06 407.802H6965.54C7051.59 407.802 7113.5 425.563 7151.29 461.086C7189.66 496.608 7208.85 548.145 7208.85 615.696C7208.85 671.6 7190.82 722.846 7154.78 769.433C7136.76 792.726 7110.3 811.361 7075.42 825.337C7040.54 839.313 6999.84 846.301 6953.34 846.301V1002.66C6953.34 1009.65 6942.29 1014.6 6920.2 1017.51C6898.69 1019.84 6880.08 1021 6864.39 1021ZM6953.34 559.792V697.806H6964.67C6985.02 697.806 7002.17 691.4 7016.12 678.588C7030.08 665.777 7037.05 647.725 7037.05 624.431C7037.05 601.138 7032.11 584.541 7022.23 574.641C7012.93 564.742 6996.07 559.792 6971.65 559.792H6953.34Z" fill="url(#paint15_linear_34_17)"/>
<path d="M6864.39 1021C6811.48 1021 6785.03 1015.18 6785.03 1003.53V437.501C6785.03 417.702 6794.04 407.802 6812.06 407.802H6965.54C7051.59 407.802 7113.5 425.563 7151.29 461.086C7189.66 496.608 7208.85 548.145 7208.85 615.696C7208.85 671.6 7190.82 722.846 7154.78 769.433C7136.76 792.726 7110.3 811.361 7075.42 825.337C7040.54 839.313 6999.84 846.301 6953.34 846.301V1002.66C6953.34 1009.65 6942.29 1014.6 6920.2 1017.51C6898.69 1019.84 6880.08 1021 6864.39 1021ZM6953.34 559.792V697.806H6964.67C6985.02 697.806 7002.17 691.4 7016.12 678.588C7030.08 665.777 7037.05 647.725 7037.05 624.431C7037.05 601.138 7032.11 584.541 7022.23 574.641C7012.93 564.742 6996.07 559.792 6971.65 559.792H6953.34Z" fill="#272262"/>
<path d="M7571.02 425.272C7571.02 413.625 7602.42 407.802 7665.2 407.802C7728.57 407.802 7760.26 413.625 7760.26 425.272V826.211C7760.26 885.609 7739.04 934.234 7696.6 972.086C7654.16 1009.36 7595.44 1027.99 7520.44 1027.99C7446.03 1027.99 7385.27 1008.77 7338.18 970.339C7291.67 931.323 7268.42 878.912 7268.42 813.108V426.145C7268.42 414.499 7299.81 408.675 7362.6 408.675C7425.97 408.675 7457.65 414.499 7457.65 426.145V820.096C7457.65 831.743 7463.76 841.06 7475.97 848.048C7488.76 855.036 7502.13 858.53 7516.08 858.53C7530.03 858.53 7542.53 855.328 7553.58 848.922C7565.21 842.516 7571.02 832.908 7571.02 820.096V425.272Z" fill="url(#paint16_linear_34_17)"/>
<path d="M7571.02 425.272C7571.02 413.625 7602.42 407.802 7665.2 407.802C7728.57 407.802 7760.26 413.625 7760.26 425.272V826.211C7760.26 885.609 7739.04 934.234 7696.6 972.086C7654.16 1009.36 7595.44 1027.99 7520.44 1027.99C7446.03 1027.99 7385.27 1008.77 7338.18 970.339C7291.67 931.323 7268.42 878.912 7268.42 813.108V426.145C7268.42 414.499 7299.81 408.675 7362.6 408.675C7425.97 408.675 7457.65 414.499 7457.65 426.145V820.096C7457.65 831.743 7463.76 841.06 7475.97 848.048C7488.76 855.036 7502.13 858.53 7516.08 858.53C7530.03 858.53 7542.53 855.328 7553.58 848.922C7565.21 842.516 7571.02 832.908 7571.02 820.096V425.272Z" fill="url(#paint17_linear_34_17)"/>
<path d="M7571.02 425.272C7571.02 413.625 7602.42 407.802 7665.2 407.802C7728.57 407.802 7760.26 413.625 7760.26 425.272V826.211C7760.26 885.609 7739.04 934.234 7696.6 972.086C7654.16 1009.36 7595.44 1027.99 7520.44 1027.99C7446.03 1027.99 7385.27 1008.77 7338.18 970.339C7291.67 931.323 7268.42 878.912 7268.42 813.108V426.145C7268.42 414.499 7299.81 408.675 7362.6 408.675C7425.97 408.675 7457.65 414.499 7457.65 426.145V820.096C7457.65 831.743 7463.76 841.06 7475.97 848.048C7488.76 855.036 7502.13 858.53 7516.08 858.53C7530.03 858.53 7542.53 855.328 7553.58 848.922C7565.21 842.516 7571.02 832.908 7571.02 820.096V425.272Z" fill="#272262"/>
<path d="M7856.12 806.12C7867.17 814.855 7886.06 826.793 7912.8 841.934C7940.13 857.075 7966 864.645 7990.42 864.645C8015.42 864.645 8027.92 855.036 8027.92 835.819C8027.92 827.084 8024.43 819.514 8017.45 813.108C8010.47 806.12 7997.68 798.259 7979.08 789.524C7960.48 780.788 7946.52 774.092 7937.22 769.433C7927.92 764.192 7915.42 756.039 7899.72 744.975C7884.61 733.328 7872.98 721.39 7864.84 709.161C7841.59 675.968 7829.96 633.749 7829.96 582.503C7829.96 531.257 7848.85 488.164 7886.64 453.224C7925.01 417.702 7975.01 399.94 8036.64 399.94C8078.49 399.94 8117.16 404.599 8152.62 413.916C8188.08 422.651 8206.4 434.298 8207.56 448.857C8207.56 450.604 8207.56 452.351 8207.56 454.098C8207.56 474.479 8201.16 500.393 8188.37 531.84C8175.58 562.703 8166.57 579.882 8161.34 583.376C8124.13 564.159 8090.7 554.551 8061.05 554.551C8031.98 554.551 8017.45 565.033 8017.45 585.997C8017.45 598.808 8028.21 610.164 8049.72 620.064C8054.37 622.393 8061.05 625.596 8069.77 629.672C8078.49 633.748 8088.38 638.698 8099.42 644.522C8111.05 649.763 8123.26 656.751 8136.05 665.486C8149.42 673.639 8163.66 684.703 8178.78 698.679C8209.59 727.796 8225 766.23 8225 813.982C8225 876.292 8207.85 927.246 8173.55 966.845C8139.25 1006.44 8086.34 1026.83 8014.83 1027.99C7979.95 1027.99 7948.27 1025.08 7919.78 1019.26C7891.88 1013.43 7867.46 1002.08 7846.53 985.189C7825.6 968.301 7815.13 947.919 7815.13 924.043C7815.13 900.168 7819.49 876.583 7828.22 853.289C7836.94 829.414 7846.24 813.691 7856.12 806.12Z" fill="url(#paint18_linear_34_17)"/>
<path d="M7856.12 806.12C7867.17 814.855 7886.06 826.793 7912.8 841.934C7940.13 857.075 7966 864.645 7990.42 864.645C8015.42 864.645 8027.92 855.036 8027.92 835.819C8027.92 827.084 8024.43 819.514 8017.45 813.108C8010.47 806.12 7997.68 798.259 7979.08 789.524C7960.48 780.788 7946.52 774.092 7937.22 769.433C7927.92 764.192 7915.42 756.039 7899.72 744.975C7884.61 733.328 7872.98 721.39 7864.84 709.161C7841.59 675.968 7829.96 633.749 7829.96 582.503C7829.96 531.257 7848.85 488.164 7886.64 453.224C7925.01 417.702 7975.01 399.94 8036.64 399.94C8078.49 399.94 8117.16 404.599 8152.62 413.916C8188.08 422.651 8206.4 434.298 8207.56 448.857C8207.56 450.604 8207.56 452.351 8207.56 454.098C8207.56 474.479 8201.16 500.393 8188.37 531.84C8175.58 562.703 8166.57 579.882 8161.34 583.376C8124.13 564.159 8090.7 554.551 8061.05 554.551C8031.98 554.551 8017.45 565.033 8017.45 585.997C8017.45 598.808 8028.21 610.164 8049.72 620.064C8054.37 622.393 8061.05 625.596 8069.77 629.672C8078.49 633.748 8088.38 638.698 8099.42 644.522C8111.05 649.763 8123.26 656.751 8136.05 665.486C8149.42 673.639 8163.66 684.703 8178.78 698.679C8209.59 727.796 8225 766.23 8225 813.982C8225 876.292 8207.85 927.246 8173.55 966.845C8139.25 1006.44 8086.34 1026.83 8014.83 1027.99C7979.95 1027.99 7948.27 1025.08 7919.78 1019.26C7891.88 1013.43 7867.46 1002.08 7846.53 985.189C7825.6 968.301 7815.13 947.919 7815.13 924.043C7815.13 900.168 7819.49 876.583 7828.22 853.289C7836.94 829.414 7846.24 813.691 7856.12 806.12Z" fill="url(#paint19_linear_34_17)"/>
<path d="M7856.12 806.12C7867.17 814.855 7886.06 826.793 7912.8 841.934C7940.13 857.075 7966 864.645 7990.42 864.645C8015.42 864.645 8027.92 855.036 8027.92 835.819C8027.92 827.084 8024.43 819.514 8017.45 813.108C8010.47 806.12 7997.68 798.259 7979.08 789.524C7960.48 780.788 7946.52 774.092 7937.22 769.433C7927.92 764.192 7915.42 756.039 7899.72 744.975C7884.61 733.328 7872.98 721.39 7864.84 709.161C7841.59 675.968 7829.96 633.749 7829.96 582.503C7829.96 531.257 7848.85 488.164 7886.64 453.224C7925.01 417.702 7975.01 399.94 8036.64 399.94C8078.49 399.94 8117.16 404.599 8152.62 413.916C8188.08 422.651 8206.4 434.298 8207.56 448.857C8207.56 450.604 8207.56 452.351 8207.56 454.098C8207.56 474.479 8201.16 500.393 8188.37 531.84C8175.58 562.703 8166.57 579.882 8161.34 583.376C8124.13 564.159 8090.7 554.551 8061.05 554.551C8031.98 554.551 8017.45 565.033 8017.45 585.997C8017.45 598.808 8028.21 610.164 8049.72 620.064C8054.37 622.393 8061.05 625.596 8069.77 629.672C8078.49 633.748 8088.38 638.698 8099.42 644.522C8111.05 649.763 8123.26 656.751 8136.05 665.486C8149.42 673.639 8163.66 684.703 8178.78 698.679C8209.59 727.796 8225 766.23 8225 813.982C8225 876.292 8207.85 927.246 8173.55 966.845C8139.25 1006.44 8086.34 1026.83 8014.83 1027.99C7979.95 1027.99 7948.27 1025.08 7919.78 1019.26C7891.88 1013.43 7867.46 1002.08 7846.53 985.189C7825.6 968.301 7815.13 947.919 7815.13 924.043C7815.13 900.168 7819.49 876.583 7828.22 853.289C7836.94 829.414 7846.24 813.691 7856.12 806.12Z" fill="#272262"/>
<defs>
<linearGradient id="paint0_linear_34_17" x1="5475.45" y1="399.94" x2="5475.45" y2="1027.99" gradientUnits="userSpaceOnUse">
<stop stop-color="#FFDADA"/>
<stop offset="1" stop-color="#FFDADA" stop-opacity="0"/>
</linearGradient>
<linearGradient id="paint1_linear_34_17" x1="2725.91" y1="711.965" x2="11051.2" y2="713.966" gradientUnits="userSpaceOnUse">
<stop stop-color="#272262"/>
<stop offset="1" stop-color="#EB5CA0"/>
</linearGradient>
<linearGradient id="paint2_linear_34_17" x1="5475.45" y1="399.94" x2="5475.45" y2="1027.99" gradientUnits="userSpaceOnUse">
<stop stop-color="#FFDADA"/>
<stop offset="1" stop-color="#FFDADA" stop-opacity="0"/>
</linearGradient>
<linearGradient id="paint3_linear_34_17" x1="2725.91" y1="711.965" x2="11051.2" y2="713.966" gradientUnits="userSpaceOnUse">
<stop stop-color="#272262"/>
<stop offset="1" stop-color="#EB5CA0"/>
</linearGradient>
<linearGradient id="paint4_linear_34_17" x1="5475.45" y1="399.94" x2="5475.45" y2="1027.99" gradientUnits="userSpaceOnUse">
<stop stop-color="#FFDADA"/>
<stop offset="1" stop-color="#FFDADA" stop-opacity="0"/>
</linearGradient>
<linearGradient id="paint5_linear_34_17" x1="2725.91" y1="711.965" x2="11051.2" y2="713.966" gradientUnits="userSpaceOnUse">
<stop stop-color="#272262"/>
<stop offset="1" stop-color="#EB5CA0"/>
</linearGradient>
<linearGradient id="paint6_linear_34_17" x1="5475.45" y1="399.94" x2="5475.45" y2="1027.99" gradientUnits="userSpaceOnUse">
<stop stop-color="#FFDADA"/>
<stop offset="1" stop-color="#FFDADA" stop-opacity="0"/>
</linearGradient>
<linearGradient id="paint7_linear_34_17" x1="2725.91" y1="711.965" x2="11051.2" y2="713.966" gradientUnits="userSpaceOnUse">
<stop stop-color="#272262"/>
<stop offset="1" stop-color="#EB5CA0"/>
</linearGradient>
<linearGradient id="paint8_linear_34_17" x1="5475.45" y1="399.94" x2="5475.45" y2="1027.99" gradientUnits="userSpaceOnUse">
<stop stop-color="#FFDADA"/>
<stop offset="1" stop-color="#FFDADA" stop-opacity="0"/>
</linearGradient>
<linearGradient id="paint9_linear_34_17" x1="2725.91" y1="711.965" x2="11051.2" y2="713.966" gradientUnits="userSpaceOnUse">
<stop stop-color="#272262"/>
<stop offset="1" stop-color="#EB5CA0"/>
</linearGradient>
<linearGradient id="paint10_linear_34_17" x1="5475.45" y1="399.94" x2="5475.45" y2="1027.99" gradientUnits="userSpaceOnUse">
<stop stop-color="#FFDADA"/>
<stop offset="1" stop-color="#FFDADA" stop-opacity="0"/>
</linearGradient>
<linearGradient id="paint11_linear_34_17" x1="2725.91" y1="711.965" x2="11051.2" y2="713.966" gradientUnits="userSpaceOnUse">
<stop stop-color="#272262"/>
<stop offset="1" stop-color="#EB5CA0"/>
</linearGradient>
<linearGradient id="paint12_linear_34_17" x1="5475.45" y1="399.94" x2="5475.45" y2="1027.99" gradientUnits="userSpaceOnUse">
<stop stop-color="#FFDADA"/>
<stop offset="1" stop-color="#FFDADA" stop-opacity="0"/>
</linearGradient>
<linearGradient id="paint13_linear_34_17" x1="2725.91" y1="711.965" x2="11051.2" y2="713.966" gradientUnits="userSpaceOnUse">
<stop stop-color="#272262"/>
<stop offset="1" stop-color="#EB5CA0"/>
</linearGradient>
<linearGradient id="paint14_linear_34_17" x1="5475.45" y1="399.94" x2="5475.45" y2="1027.99" gradientUnits="userSpaceOnUse">
<stop stop-color="#FFDADA"/>
<stop offset="1" stop-color="#FFDADA" stop-opacity="0"/>
</linearGradient>
<linearGradient id="paint15_linear_34_17" x1="2725.91" y1="711.965" x2="11051.2" y2="713.966" gradientUnits="userSpaceOnUse">
<stop stop-color="#272262"/>
<stop offset="1" stop-color="#EB5CA0"/>
</linearGradient>
<linearGradient id="paint16_linear_34_17" x1="5475.45" y1="399.94" x2="5475.45" y2="1027.99" gradientUnits="userSpaceOnUse">
<stop stop-color="#FFDADA"/>
<stop offset="1" stop-color="#FFDADA" stop-opacity="0"/>
</linearGradient>
<linearGradient id="paint17_linear_34_17" x1="2725.91" y1="711.965" x2="11051.2" y2="713.966" gradientUnits="userSpaceOnUse">
<stop stop-color="#272262"/>
<stop offset="1" stop-color="#EB5CA0"/>
</linearGradient>
<linearGradient id="paint18_linear_34_17" x1="5475.45" y1="399.94" x2="5475.45" y2="1027.99" gradientUnits="userSpaceOnUse">
<stop stop-color="#FFDADA"/>
<stop offset="1" stop-color="#FFDADA" stop-opacity="0"/>
</linearGradient>
<linearGradient id="paint19_linear_34_17" x1="2725.91" y1="711.965" x2="11051.2" y2="713.966" gradientUnits="userSpaceOnUse">
<stop stop-color="#272262"/>
<stop offset="1" stop-color="#EB5CA0"/>
</linearGradient>
</defs>
</svg>
