<svg width="253" height="44" viewBox="0 0 253 44" fill="none" xmlns="http://www.w3.org/2000/svg">
<path fill-rule="evenodd" clip-rule="evenodd" d="M49.1876 0.0077895C49.1256 0.0129433 48.9168 0.0293852 48.7238 0.0443438C47.4573 0.142467 45.9981 0.433871 44.6952 0.848815L44.3021 0.97404L43.7987 1.31439L43.2954 1.65477L42.9849 1.36985C42.7593 1.16285 42.6097 1.04906 42.438 0.953676C41.1749 0.251979 39.8614 0.317144 38.545 1.14676C37.8737 1.56985 37.1411 2.26415 36.5209 3.06495C36.4105 3.2075 36.3111 3.3276 36.3001 3.33179C36.2891 3.33602 36.1861 3.26678 36.0711 3.17796C35.6826 2.87776 34.9219 2.41391 34.9219 2.47719C34.9219 2.52053 35.2536 2.93198 35.6326 3.35884C35.954 3.72082 35.995 3.77676 35.9714 3.82105C35.9494 3.86223 35.7317 4.20907 35.7102 4.23723C35.7068 4.24163 35.5422 4.12397 35.3443 3.97577C33.6492 2.706 32.0413 1.95349 30.3589 1.64255C29.6988 1.52054 29.3466 1.49078 28.5663 1.49106C27.6367 1.49136 27.097 1.55041 26.1773 1.75244C25.8321 1.82826 24.935 2.07959 24.9513 2.09591C24.9703 2.11497 25.6311 2.20497 26.0215 2.2417C26.5055 2.28723 27.2702 2.33108 27.5808 2.33108C27.8091 2.3311 27.8953 2.36728 27.7334 2.39513C27.6813 2.40411 27.4525 2.45064 27.225 2.49854C24.7433 3.02103 22.7986 3.79911 21.716 4.70261C21.5185 4.86738 21.2225 5.16989 21.2407 5.18819C21.2445 5.19207 21.36 5.16109 21.4973 5.11936C22.2002 4.90562 23.2399 4.69132 23.238 4.76055C23.2377 4.77252 23.1339 4.83887 23.0074 4.908C22.483 5.19463 21.6747 5.76894 21.0915 6.26929C20.7222 6.58611 20.0619 7.25902 19.7725 7.6135C18.894 8.68964 18.329 9.85621 18.1127 11.041C18.0602 11.3282 17.9987 11.8275 17.9987 11.9655C17.9987 11.9914 18.2005 11.7094 18.4472 11.3389C18.8505 10.7332 19.1584 10.3002 19.3375 10.087L19.4009 10.0115L19.4016 10.3258C19.4031 10.8918 19.341 11.7337 19.2506 12.374C19.1637 12.9898 19.0503 13.4268 18.9014 13.7194L18.8458 13.8288L19.0552 13.642C19.346 13.3828 19.5798 13.1971 19.8247 13.0306C20.0428 12.8824 20.4271 12.6771 20.4477 12.6978C20.4543 12.7044 20.3867 12.9003 20.2975 13.1331C20.0668 13.7353 19.8785 14.3402 19.8203 14.6657C19.8122 14.7115 19.8196 14.7626 19.8382 14.7881C19.868 14.829 19.8753 14.8291 19.9493 14.7908C20.0841 14.7209 20.4974 14.2794 20.8285 13.8517C20.8739 13.793 20.9192 13.7449 20.9291 13.7449C20.9389 13.7449 20.9601 13.8891 20.9762 14.0654C21.0834 15.2409 21.4668 16.4204 21.9951 17.1997C22.2925 17.6384 22.4056 17.9178 22.5233 18.5051C22.6104 18.9396 22.6468 19.4179 22.6279 19.8792C22.6106 20.3002 22.5762 20.5145 22.4741 20.8386C22.3983 21.0794 22.4056 21.1963 22.504 21.3135C22.6714 21.5131 22.9589 21.5991 23.4517 21.597C23.8453 21.5954 24.1012 21.5432 24.306 21.4229C24.3763 21.3816 24.4576 21.3556 24.5166 21.3556C24.6785 21.3556 24.7534 21.4329 24.9097 21.761C24.9864 21.922 25.0785 22.0851 25.1142 22.1234C25.2264 22.2433 25.43 22.2638 25.6537 22.1777C25.696 22.1614 25.6955 22.1673 25.6474 22.2575C25.5945 22.3563 25.5812 22.4586 25.6145 22.5091C25.6408 22.549 25.7647 22.6092 26.0267 22.7095C26.3967 22.8511 26.5871 22.963 26.7169 23.1154C26.7808 23.1904 26.8758 23.2736 26.928 23.3003C27.1813 23.4299 27.6772 23.4626 28.0456 23.374C28.5565 23.2512 28.9826 22.9203 29.2867 22.4103L29.389 22.2388L29.5873 22.4354C29.8712 22.7168 30.061 22.9774 30.1189 23.1654C30.1346 23.2162 30.1068 23.2357 29.8025 23.3882C29.619 23.4802 29.4649 23.5591 29.46 23.5635C29.4552 23.5679 29.4886 23.7573 29.5343 23.9844L29.6173 24.3971L29.4649 24.6208C29.057 25.2197 28.5766 26.1092 28.4022 26.5884C28.2874 26.904 28.2083 27.2342 28.1883 27.4817C28.1715 27.6892 28.1679 27.6993 28.1053 27.7132C27.4948 27.8491 26.8113 28.1629 26.1228 28.6237C25.6489 28.9408 25.6835 28.9195 25.7088 28.8784C25.7203 28.8597 26.0492 28.4782 26.4398 28.0306C26.8302 27.5829 27.1491 27.209 27.1484 27.1996C27.1467 27.1782 17.4515 19.8441 17.4123 19.8345C17.3966 19.8306 16.1916 21.1656 14.7347 22.8011C13.2777 24.4365 12.0442 25.8142 11.9935 25.8626L11.9014 25.9506L12.015 25.7831C12.1055 25.6497 13.6827 23.4691 14.741 22.0141L14.9345 21.7482L13.8953 20.7356C13.3237 20.1787 12.8529 19.727 12.8492 19.732C12.8397 19.7445 10.6064 26.295 10.5974 26.3366C10.5929 26.3573 11.4012 26.9217 12.6584 27.7757C14.9147 29.3083 15.3399 29.6033 15.0904 29.463C15.0421 29.4358 14.9465 29.3828 14.878 29.3451C14.8094 29.3074 13.785 28.7001 12.6016 27.9957C11.4181 27.2913 10.4348 26.7092 10.4164 26.7021C10.3933 26.6932 10.3475 26.7735 10.2687 26.961C10.1209 27.3129 10.051 27.5707 10.051 27.7644C10.051 27.9141 10.0545 27.9227 10.145 27.9944C10.3858 28.1853 11.4926 28.8823 12.8966 29.7271C15.3817 31.2226 19.6279 33.6911 20.297 34.0293L20.4518 34.1075L20.5979 33.9996C20.803 33.8482 21.1596 33.515 21.5789 33.0829C21.9586 32.6917 21.9666 32.7083 21.6249 33.1785C21.2257 33.7279 20.8083 34.179 20.5124 34.381C20.2169 34.5827 18.848 35.8528 16.9741 37.6637C16.118 38.4911 15.7622 38.8557 15.2827 39.3969C15.1157 39.5854 14.9813 39.6863 14.9546 39.6431C14.9473 39.6313 14.9967 39.5097 15.0644 39.3729C15.236 39.0261 15.2962 38.8335 15.3105 38.5857C15.3205 38.4131 15.3144 38.3583 15.2775 38.2897C15.2148 38.1729 15.0974 38.1061 14.955 38.1061C14.7131 38.1061 14.4999 38.2559 14.1554 38.6679C13.8143 39.076 13.7449 39.1744 13.6211 39.4259C13.4735 39.7258 13.4266 39.9545 13.4443 40.2881L13.458 40.5469L13.2838 40.3598C13.0761 40.1369 12.9254 40.035 12.7178 39.9774C12.4607 39.906 12.2338 39.9729 12.1401 40.1476C12.1054 40.2123 12.0928 40.3131 12.0825 40.6075L12.0692 40.9846L11.9864 40.838C11.7712 40.4573 11.4341 40.243 11.0502 40.243C10.6345 40.243 10.2738 40.5816 10.1375 41.0998C10.0766 41.3313 10.0822 41.7556 10.1495 42.0133C10.1781 42.1227 10.1977 42.2161 10.193 42.2208C10.1883 42.2255 9.68339 42.246 9.071 42.2664C3.74466 42.4439 0.636741 42.6555 0.066264 42.8796C-0.022088 42.9143 -0.022088 42.9769 0.066264 43.0116C0.967535 43.3654 8.10609 43.6814 19.3024 43.8631C26.0073 43.9719 30.1356 44 39.4975 44C47.8505 44.0001 51.531 43.9805 56.2452 43.9111C57.2381 43.8965 58.7792 43.8814 59.67 43.8777C60.5608 43.874 61.3007 43.864 61.3144 43.8555C61.328 43.8471 61.9023 43.8283 62.5905 43.8139C71.9827 43.6163 77.2596 43.3758 78.6901 43.0803C78.9631 43.0238 79.0396 42.9882 79.0165 42.9281C78.9013 42.6269 73.2244 42.3078 64.7696 42.1274C63.5978 42.1024 63.4532 42.0948 63.3405 42.0524C63.0709 41.951 62.9953 41.9406 62.5382 41.9419C62.2142 41.9428 62.0162 41.9561 61.8362 41.9891C61.5502 42.0415 60.6927 42.0681 60.3455 42.0354L60.1335 42.0154L60.9723 41.5225C61.4336 41.2514 61.9193 40.9769 62.0516 40.9125C63.0435 40.4299 63.6742 39.6361 63.844 38.6567C63.8952 38.3613 63.8806 37.6657 63.8171 37.377C63.5434 36.1322 62.6723 35.0763 61.6607 34.7632C61.36 34.6702 61.1962 34.6687 60.9209 34.7568C60.5822 34.865 60.199 34.9556 59.8132 35.0187C59.5371 35.0638 59.3755 35.0732 58.8778 35.0733C58.179 35.0734 57.9535 35.045 57.0154 34.8392C56.6944 34.7688 56.3644 34.7041 56.2821 34.6955C56.1998 34.6868 56.1324 34.671 56.1324 34.6602C56.1324 34.6495 56.1917 34.6212 56.2641 34.5974C56.8645 34.4001 57.4997 33.8801 57.8988 33.2591L58.0166 33.0758L58.098 33.1837C58.4457 33.6449 58.6538 34.0903 58.6361 34.3357C58.6296 34.4258 58.6379 34.4423 58.7157 34.4949C58.8926 34.6146 59.0514 34.6493 59.4168 34.6483C59.7723 34.6472 59.9809 34.614 60.357 34.4985L60.5576 34.4369L63.3531 32.0385L66.1487 29.6401L68.9441 26.8047L71.7394 23.9693L71.7471 23.8306L71.7547 23.692L71.5967 23.83C71.5097 23.9059 70.457 24.8149 69.2574 25.85C67.387 27.4639 66.9953 27.8138 66.5085 28.3058C66.1963 28.6213 65.9289 28.8795 65.9143 28.8795C65.8997 28.8795 65.8086 28.7635 65.7118 28.6218C65.2248 27.9087 64.484 27.1898 63.6163 26.5883C62.622 25.8991 61.2523 25.2378 59.8768 24.7828C59.3717 24.6157 58.7688 24.4425 58.7519 24.4595C58.7473 24.464 59.9678 25.3218 61.464 26.3657C62.9602 27.4095 64.2927 28.3401 64.4251 28.4336C64.6668 28.6044 64.7595 28.6792 64.6191 28.5904C64.5778 28.5642 64.3465 28.4225 64.1052 28.2755C63.7601 28.0652 56.9336 23.7981 56.7189 23.6584C56.6696 23.6263 56.4996 23.7442 54.1395 25.4482C52.7499 26.4514 51.6101 27.2691 51.6065 27.2651C51.603 27.2611 50.7081 25.7717 49.618 23.9552L47.6359 20.6525L47.872 20.1797L48.108 19.7068L47.8267 19.6136C47.672 19.5624 47.5364 19.5153 47.5253 19.5089C47.4764 19.4811 47.7653 19.1127 47.8964 19.0356C48.1025 18.9146 48.2373 18.9508 49.1625 19.376C50.1413 19.8258 50.4909 19.9236 51.2067 19.9474C51.7979 19.9672 52.5136 19.8597 52.9566 19.6849C53.066 19.6417 53.0831 19.6236 53.1344 19.4969C53.2562 19.1963 53.3504 19.0974 53.524 19.0876C53.6879 19.0783 53.753 18.9937 54.0301 18.4297C54.4768 17.5205 54.5781 17.4189 54.8172 17.6399C54.9489 17.7616 55.0737 17.8269 55.2747 17.8791C55.4936 17.936 55.9119 17.9719 56.1292 17.9524L56.3139 17.9359L56.2977 17.7969C56.2688 17.5508 56.1327 16.8857 56.0309 16.4934C55.8866 15.9375 55.9008 15.6888 56.0994 15.291C56.2476 14.9943 56.3993 14.805 56.8347 14.3734C57.2932 13.9188 57.4053 13.7646 57.6009 13.3189C57.8247 12.8091 58.0463 12.0769 58.1902 11.372C58.2329 11.163 58.2716 10.9882 58.2762 10.9836C58.2956 10.9639 58.3402 11.1005 58.5027 11.6771C58.5972 12.0124 58.6822 12.2867 58.6916 12.2867C58.7416 12.2867 58.9157 11.7528 58.9873 11.3795C59.0749 10.9223 59.0992 10.5228 59.0815 9.82597C59.0726 9.47171 59.0563 9.11663 59.0454 9.03688C59.0318 8.93808 59.0339 8.89466 59.0519 8.90064C59.1253 8.92501 59.5276 9.94591 59.7246 10.6079L59.8298 10.9615L59.8618 10.851C59.9201 10.65 59.9684 10.1776 59.9684 9.80839C59.9684 9.07009 59.8576 8.35125 59.5816 7.29821C59.5602 7.21628 59.5466 7.14526 59.5514 7.14041C59.5563 7.13553 59.8261 7.65511 60.1511 8.29501C60.476 8.93489 60.8087 9.5864 60.8903 9.7428L61.0388 10.0271L61.0552 9.83328C61.08 9.53856 61.0746 8.76345 61.0456 8.45282C60.9091 6.99203 60.4004 5.80399 59.5433 4.94456C59.0243 4.42417 58.4179 4.05134 57.7098 3.81731C57.5447 3.76278 57.5445 3.76258 57.3774 3.51484C56.9088 2.82031 56.358 2.22174 55.7385 1.73379C55.4588 1.51353 54.9131 1.16994 54.5529 0.987314C53.5665 0.487219 52.548 0.199109 51.252 0.0535955C50.9262 0.0170161 49.4667 -0.0153649 49.1876 0.0077895ZM38.4695 2.83301C38.028 2.99403 36.7939 3.62566 36.7355 3.72059C36.7273 3.73382 36.7928 3.81703 36.8811 3.9055L37.0415 4.0664L37.1914 3.88825C37.4866 3.53749 37.9885 3.13796 38.438 2.89593C38.6603 2.77626 38.6682 2.7606 38.4695 2.83301ZM35.9935 4.17664L35.7991 4.30941L36.1371 4.57082C36.3231 4.71457 36.4865 4.83598 36.5003 4.84058C36.514 4.84518 36.5502 4.79751 36.5807 4.73466C36.6298 4.63334 36.6322 4.61311 36.6018 4.55619C36.5501 4.45932 36.2418 4.05823 36.2131 4.05059C36.1993 4.04689 36.1005 4.10361 35.9935 4.17664ZM40.3344 4.82693C40.0571 5.20192 39.7878 5.65817 39.5775 6.10914C39.4675 6.34511 39.2593 6.86321 39.2593 6.90089C39.2593 6.91578 39.304 7.01111 39.3587 7.11273C39.6199 7.59824 40.0022 8.64808 40.1718 9.3453C40.3979 10.2746 40.4742 10.9878 40.4542 11.9851C40.4463 12.3791 40.4279 12.7921 40.4132 12.9027C40.3085 13.6919 40.1513 14.3876 39.9247 15.0635C39.8504 15.2854 39.7859 15.484 39.7814 15.5047C39.7769 15.5255 39.7668 15.5481 39.7589 15.555C39.7511 15.5619 39.7147 15.6435 39.678 15.7362C39.5004 16.1856 39.157 16.872 38.8504 17.3903C38.2446 18.4145 37.2413 19.6429 36.5398 20.2193C36.404 20.3309 36.3782 20.3196 36.3018 20.1148C36.1342 19.6656 36.3851 19.0538 37.0006 18.4108C37.1053 18.3014 37.1697 18.2196 37.1437 18.229C37.1178 18.2383 36.9918 18.3078 36.8637 18.3834C36.2372 18.7532 35.8258 19.1796 35.6691 19.6218C35.5967 19.826 35.5821 20.15 35.636 20.3569C35.7129 20.6521 35.9001 20.9735 36.1605 21.2573C36.3301 21.442 36.314 21.4447 36.6666 21.1727L36.9809 20.9303L37.1987 21.0675C37.3819 21.1829 37.4428 21.2396 37.5818 21.4243C37.7644 21.667 38.0563 22.145 38.2574 22.5307C38.8452 23.6581 39.3199 25.1894 39.5964 26.85L39.6768 27.3333L39.6949 27.0945C39.8317 25.2888 40.2918 23.5137 40.9813 22.1322C41.4806 21.1316 42.0613 20.3285 42.8485 19.5499L43.1687 19.2331L43.1723 18.6637C43.1745 18.3 43.1849 18.0942 43.201 18.0942C43.2149 18.0942 43.3708 18.1705 43.5474 18.2638C43.724 18.3571 43.8759 18.426 43.885 18.4169C43.9081 18.3937 44.3488 17.2148 44.3488 17.1762C44.3488 17.1589 44.2455 17.0218 44.1191 16.8715C42.8821 15.4002 41.7982 13.5039 41.2111 11.7839C40.8074 10.6014 40.6371 9.6618 40.6254 8.55338C40.6144 7.51053 40.7281 6.75598 41.029 5.873C41.1194 5.60782 41.1794 5.45773 41.3562 5.05482C41.3841 4.99104 40.6737 4.67231 40.5003 4.67085C40.4677 4.67058 40.4098 4.72506 40.3344 4.82693ZM40.004 34.4877L40.0176 34.9045L39.9359 34.9977C39.5569 35.4305 37.5679 35.9829 34.9971 36.3692C34.8359 36.3935 33.8044 36.5437 33.7561 36.55C33.7423 36.5518 33.7649 36.5619 33.8062 36.5725C33.9175 36.6009 34.6656 36.6009 34.9971 36.5725C36.1801 36.4713 37.6662 36.1968 38.8662 35.8577C39.0409 35.8084 39.1884 35.768 39.1939 35.768C39.1995 35.768 39.2175 35.8443 39.234 35.9377C39.2738 36.1633 39.2864 36.7118 39.2575 36.9622C39.1328 38.042 38.6383 39.3057 37.8111 40.6578C37.7 40.8395 37.1859 41.6113 37.0311 41.8288C36.9973 41.8764 37.0371 41.8771 39.6637 41.877L42.3306 41.8768L42.2052 41.7727C41.9765 41.5828 41.6213 41.2023 41.4522 40.9662C41.3605 40.8381 41.2139 40.5862 41.1265 40.4064C40.8467 39.8311 40.7414 39.429 40.626 38.4957C40.6047 38.3231 40.3144 36.3022 40.2969 36.2049L40.2829 36.1264L40.4794 36.1609C40.5874 36.1798 40.7717 36.2069 40.8889 36.2211C41.0062 36.2353 41.1415 36.2518 41.1898 36.2579C41.2381 36.2639 41.4355 36.2806 41.6286 36.2948C41.8216 36.3091 42.0698 36.3275 42.1801 36.3356C42.4925 36.3587 43.9446 36.3642 44.3488 36.3439C44.887 36.3169 45.2512 36.295 45.3642 36.283C45.4194 36.2772 45.6507 36.2537 45.8782 36.2308C46.1057 36.208 46.2975 36.1834 46.3044 36.1763C46.3113 36.1692 46.2436 36.1704 46.154 36.179C45.4379 36.2477 43.6714 36.2521 43.0702 36.1866C41.8516 36.0538 40.9566 35.8028 40.2761 35.403L40.1694 35.3403L40.101 34.8313C39.9963 34.0523 39.989 34.0264 40.004 34.4877ZM22.0587 37.8075C21.2976 39.3284 20.083 40.3453 18.5787 40.7211C18.1052 40.8394 17.7629 40.8806 17.238 40.8824L16.7657 40.8841L16.8915 40.9394C17.0905 41.0268 17.4552 41.1168 17.8329 41.1716C18.0245 41.1994 18.1881 41.2291 18.1965 41.2375C18.2049 41.246 18.2113 41.4322 18.2106 41.6513C18.21 41.8704 18.2157 42.0461 18.2232 42.0416C18.2307 42.0371 18.7671 42.0261 19.4152 42.0172C20.0633 42.0082 20.7966 41.9962 21.0448 41.9904C21.2931 41.9847 22.2182 41.9723 23.1007 41.963C23.9832 41.9536 25.0745 41.939 25.5259 41.9304L26.3464 41.9148L26.2457 41.7552C26.0065 41.3759 25.829 40.9151 25.7118 40.3687L25.6498 40.0796L25.6477 40.6794L25.6455 41.2792L25.5785 41.2624C25.5417 41.2531 25.4373 41.1973 25.3466 41.1385C24.6422 40.6813 23.4973 39.4116 22.499 37.9804C22.3495 37.766 22.2186 37.5807 22.2082 37.5686C22.1978 37.5565 22.1305 37.664 22.0587 37.8075Z" fill="white"/>
<path d="M93.7359 26.4459L93.7895 22.7942C93.7895 22.5435 94.0486 22.3824 94.5669 22.3108C95.0851 22.2213 95.514 22.1766 95.8536 22.1766L96.8991 22.2571C97.5782 22.3645 97.9177 22.5525 97.9177 22.821L97.8105 31.2255C97.4531 31.4761 96.7293 31.7267 95.6391 31.9773C94.5669 32.21 93.3338 32.3264 91.9398 32.3264C89.3485 32.3264 87.2576 31.485 85.667 29.8024C84.0765 28.1197 83.2812 25.6494 83.2812 22.3914C83.2812 19.6167 84.0586 17.3612 85.6134 15.6248C87.1682 13.8885 89.3217 13.0203 92.0739 13.0203C93.3248 13.0203 94.4507 13.1456 95.4515 13.3962C96.4702 13.6289 97.1671 13.9511 97.5424 14.3628C97.5603 14.506 97.5692 14.7746 97.5692 15.1684C97.5692 15.5622 97.4352 16.1261 97.1671 16.86C96.8991 17.576 96.5953 18.1131 96.2557 18.4711C95.9161 18.8291 95.666 19.0081 95.5051 19.0081C95.3621 19.0081 95.2013 18.9455 95.0226 18.8202C94.8618 18.6769 94.5311 18.5337 94.0307 18.3905C93.5303 18.2294 93.0478 18.1489 92.5832 18.1489C91.4752 18.1489 90.5727 18.5069 89.8757 19.2229C89.1966 19.939 88.857 21.0488 88.857 22.5525C88.857 24.0562 89.2055 25.2018 89.9025 25.9895C90.6174 26.7592 91.4305 27.1441 92.3419 27.1441C93.2712 27.1441 93.7359 26.9114 93.7359 26.4459Z" fill="white"/>
<path d="M93.7359 26.4459L93.7895 22.7942C93.7895 22.5435 94.0486 22.3824 94.5669 22.3108C95.0851 22.2213 95.514 22.1766 95.8536 22.1766L96.8991 22.2571C97.5782 22.3645 97.9177 22.5525 97.9177 22.821L97.8105 31.2255C97.4531 31.4761 96.7293 31.7267 95.6391 31.9773C94.5669 32.21 93.3338 32.3264 91.9398 32.3264C89.3485 32.3264 87.2576 31.485 85.667 29.8024C84.0765 28.1197 83.2812 25.6494 83.2812 22.3914C83.2812 19.6167 84.0586 17.3612 85.6134 15.6248C87.1682 13.8885 89.3217 13.0203 92.0739 13.0203C93.3248 13.0203 94.4507 13.1456 95.4515 13.3962C96.4702 13.6289 97.1671 13.9511 97.5424 14.3628C97.5603 14.506 97.5692 14.7746 97.5692 15.1684C97.5692 15.5622 97.4352 16.1261 97.1671 16.86C96.8991 17.576 96.5953 18.1131 96.2557 18.4711C95.9161 18.8291 95.666 19.0081 95.5051 19.0081C95.3621 19.0081 95.2013 18.9455 95.0226 18.8202C94.8618 18.6769 94.5311 18.5337 94.0307 18.3905C93.5303 18.2294 93.0478 18.1489 92.5832 18.1489C91.4752 18.1489 90.5727 18.5069 89.8757 19.2229C89.1966 19.939 88.857 21.0488 88.857 22.5525C88.857 24.0562 89.2055 25.2018 89.9025 25.9895C90.6174 26.7592 91.4305 27.1441 92.3419 27.1441C93.2712 27.1441 93.7359 26.9114 93.7359 26.4459Z" fill="white"/>
<path d="M93.7359 26.4459L93.7895 22.7942C93.7895 22.5435 94.0486 22.3824 94.5669 22.3108C95.0851 22.2213 95.514 22.1766 95.8536 22.1766L96.8991 22.2571C97.5782 22.3645 97.9177 22.5525 97.9177 22.821L97.8105 31.2255C97.4531 31.4761 96.7293 31.7267 95.6391 31.9773C94.5669 32.21 93.3338 32.3264 91.9398 32.3264C89.3485 32.3264 87.2576 31.485 85.667 29.8024C84.0765 28.1197 83.2812 25.6494 83.2812 22.3914C83.2812 19.6167 84.0586 17.3612 85.6134 15.6248C87.1682 13.8885 89.3217 13.0203 92.0739 13.0203C93.3248 13.0203 94.4507 13.1456 95.4515 13.3962C96.4702 13.6289 97.1671 13.9511 97.5424 14.3628C97.5603 14.506 97.5692 14.7746 97.5692 15.1684C97.5692 15.5622 97.4352 16.1261 97.1671 16.86C96.8991 17.576 96.5953 18.1131 96.2557 18.4711C95.9161 18.8291 95.666 19.0081 95.5051 19.0081C95.3621 19.0081 95.2013 18.9455 95.0226 18.8202C94.8618 18.6769 94.5311 18.5337 94.0307 18.3905C93.5303 18.2294 93.0478 18.1489 92.5832 18.1489C91.4752 18.1489 90.5727 18.5069 89.8757 19.2229C89.1966 19.939 88.857 21.0488 88.857 22.5525C88.857 24.0562 89.2055 25.2018 89.9025 25.9895C90.6174 26.7592 91.4305 27.1441 92.3419 27.1441C93.2712 27.1441 93.7359 26.9114 93.7359 26.4459Z" fill="white"/>
<path d="M108.428 32.3264C105.926 32.3264 103.88 31.5029 102.29 29.8561C100.717 28.2092 99.9307 25.8105 99.9307 22.6599C99.9307 19.4914 100.726 17.0927 102.317 15.4637C103.925 13.8348 105.989 13.0203 108.509 13.0203C111.047 13.0203 113.093 13.8258 114.648 15.4369C116.202 17.0301 116.98 19.4556 116.98 22.7136C116.98 25.9537 116.185 28.3703 114.594 29.9635C113.003 31.5387 110.948 32.3264 108.428 32.3264ZM108.455 18.1757C107.597 18.1757 106.874 18.5695 106.284 19.3572C105.712 20.1448 105.426 21.2547 105.426 22.6868C105.426 24.1009 105.703 25.1929 106.257 25.9626C106.811 26.7145 107.535 27.0904 108.428 27.0904C109.34 27.0904 110.073 26.7055 110.627 25.9358C111.198 25.166 111.484 24.0651 111.484 22.633C111.484 21.201 111.19 20.1001 110.6 19.3303C110.028 18.5606 109.313 18.1757 108.455 18.1757Z" fill="white"/>
<path d="M108.428 32.3264C105.926 32.3264 103.88 31.5029 102.29 29.8561C100.717 28.2092 99.9307 25.8105 99.9307 22.6599C99.9307 19.4914 100.726 17.0927 102.317 15.4637C103.925 13.8348 105.989 13.0203 108.509 13.0203C111.047 13.0203 113.093 13.8258 114.648 15.4369C116.202 17.0301 116.98 19.4556 116.98 22.7136C116.98 25.9537 116.185 28.3703 114.594 29.9635C113.003 31.5387 110.948 32.3264 108.428 32.3264ZM108.455 18.1757C107.597 18.1757 106.874 18.5695 106.284 19.3572C105.712 20.1448 105.426 21.2547 105.426 22.6868C105.426 24.1009 105.703 25.1929 106.257 25.9626C106.811 26.7145 107.535 27.0904 108.428 27.0904C109.34 27.0904 110.073 26.7055 110.627 25.9358C111.198 25.166 111.484 24.0651 111.484 22.633C111.484 21.201 111.19 20.1001 110.6 19.3303C110.028 18.5606 109.313 18.1757 108.455 18.1757Z" fill="white"/>
<path d="M108.428 32.3264C105.926 32.3264 103.88 31.5029 102.29 29.8561C100.717 28.2092 99.9307 25.8105 99.9307 22.6599C99.9307 19.4914 100.726 17.0927 102.317 15.4637C103.925 13.8348 105.989 13.0203 108.509 13.0203C111.047 13.0203 113.093 13.8258 114.648 15.4369C116.202 17.0301 116.98 19.4556 116.98 22.7136C116.98 25.9537 116.185 28.3703 114.594 29.9635C113.003 31.5387 110.948 32.3264 108.428 32.3264ZM108.455 18.1757C107.597 18.1757 106.874 18.5695 106.284 19.3572C105.712 20.1448 105.426 21.2547 105.426 22.6868C105.426 24.1009 105.703 25.1929 106.257 25.9626C106.811 26.7145 107.535 27.0904 108.428 27.0904C109.34 27.0904 110.073 26.7055 110.627 25.9358C111.198 25.166 111.484 24.0651 111.484 22.633C111.484 21.201 111.19 20.1001 110.6 19.3303C110.028 18.5606 109.313 18.1757 108.455 18.1757Z" fill="white"/>
<path d="M127.201 31.6283C127.201 31.9863 126.316 32.1653 124.547 32.1653C122.778 32.1653 121.893 31.9863 121.893 31.6283V18.1489H118.676C118.373 18.1489 118.158 17.7372 118.033 16.9137C117.979 16.5199 117.953 16.1171 117.953 15.7054C117.953 15.2937 117.979 14.8909 118.033 14.4971C118.158 13.6736 118.373 13.2619 118.676 13.2619H130.337C130.641 13.2619 130.856 13.6736 130.981 14.4971C131.034 14.8909 131.061 15.2937 131.061 15.7054C131.061 16.1171 131.034 16.5199 130.981 16.9137C130.856 17.7372 130.641 18.1489 130.337 18.1489H127.201V31.6283Z" fill="white"/>
<path d="M127.201 31.6283C127.201 31.9863 126.316 32.1653 124.547 32.1653C122.778 32.1653 121.893 31.9863 121.893 31.6283V18.1489H118.676C118.373 18.1489 118.158 17.7372 118.033 16.9137C117.979 16.5199 117.953 16.1171 117.953 15.7054C117.953 15.2937 117.979 14.8909 118.033 14.4971C118.158 13.6736 118.373 13.2619 118.676 13.2619H130.337C130.641 13.2619 130.856 13.6736 130.981 14.4971C131.034 14.8909 131.061 15.2937 131.061 15.7054C131.061 16.1171 131.034 16.5199 130.981 16.9137C130.856 17.7372 130.641 18.1489 130.337 18.1489H127.201V31.6283Z" fill="white"/>
<path d="M127.201 31.6283C127.201 31.9863 126.316 32.1653 124.547 32.1653C122.778 32.1653 121.893 31.9863 121.893 31.6283V18.1489H118.676C118.373 18.1489 118.158 17.7372 118.033 16.9137C117.979 16.5199 117.953 16.1171 117.953 15.7054C117.953 15.2937 117.979 14.8909 118.033 14.4971C118.158 13.6736 118.373 13.2619 118.676 13.2619H130.337C130.641 13.2619 130.856 13.6736 130.981 14.4971C131.034 14.8909 131.061 15.2937 131.061 15.7054C131.061 16.1171 131.034 16.5199 130.981 16.9137C130.856 17.7372 130.641 18.1489 130.337 18.1489H127.201V31.6283Z" fill="white"/>
<path d="M140.549 32.3264C138.047 32.3264 136.001 31.5029 134.411 29.8561C132.838 28.2092 132.052 25.8105 132.052 22.6599C132.052 19.4914 132.847 17.0927 134.437 15.4637C136.046 13.8348 138.11 13.0203 140.63 13.0203C143.168 13.0203 145.214 13.8258 146.769 15.4369C148.323 17.0301 149.101 19.4556 149.101 22.7136C149.101 25.9537 148.305 28.3703 146.715 29.9635C145.124 31.5387 143.069 32.3264 140.549 32.3264ZM140.576 18.1757C139.718 18.1757 138.995 18.5695 138.405 19.3572C137.833 20.1448 137.547 21.2547 137.547 22.6868C137.547 24.1009 137.824 25.1929 138.378 25.9626C138.932 26.7145 139.656 27.0904 140.549 27.0904C141.461 27.0904 142.194 26.7055 142.748 25.9358C143.319 25.166 143.605 24.0651 143.605 22.633C143.605 21.201 143.31 20.1001 142.721 19.3303C142.149 18.5606 141.434 18.1757 140.576 18.1757Z" fill="white"/>
<path d="M140.549 32.3264C138.047 32.3264 136.001 31.5029 134.411 29.8561C132.838 28.2092 132.052 25.8105 132.052 22.6599C132.052 19.4914 132.847 17.0927 134.437 15.4637C136.046 13.8348 138.11 13.0203 140.63 13.0203C143.168 13.0203 145.214 13.8258 146.769 15.4369C148.323 17.0301 149.101 19.4556 149.101 22.7136C149.101 25.9537 148.305 28.3703 146.715 29.9635C145.124 31.5387 143.069 32.3264 140.549 32.3264ZM140.576 18.1757C139.718 18.1757 138.995 18.5695 138.405 19.3572C137.833 20.1448 137.547 21.2547 137.547 22.6868C137.547 24.1009 137.824 25.1929 138.378 25.9626C138.932 26.7145 139.656 27.0904 140.549 27.0904C141.461 27.0904 142.194 26.7055 142.748 25.9358C143.319 25.166 143.605 24.0651 143.605 22.633C143.605 21.201 143.31 20.1001 142.721 19.3303C142.149 18.5606 141.434 18.1757 140.576 18.1757Z" fill="white"/>
<path d="M140.549 32.3264C138.047 32.3264 136.001 31.5029 134.411 29.8561C132.838 28.2092 132.052 25.8105 132.052 22.6599C132.052 19.4914 132.847 17.0927 134.437 15.4637C136.046 13.8348 138.11 13.0203 140.63 13.0203C143.168 13.0203 145.214 13.8258 146.769 15.4369C148.323 17.0301 149.101 19.4556 149.101 22.7136C149.101 25.9537 148.305 28.3703 146.715 29.9635C145.124 31.5387 143.069 32.3264 140.549 32.3264ZM140.576 18.1757C139.718 18.1757 138.995 18.5695 138.405 19.3572C137.833 20.1448 137.547 21.2547 137.547 22.6868C137.547 24.1009 137.824 25.1929 138.378 25.9626C138.932 26.7145 139.656 27.0904 140.549 27.0904C141.461 27.0904 142.194 26.7055 142.748 25.9358C143.319 25.166 143.605 24.0651 143.605 22.633C143.605 21.201 143.31 20.1001 142.721 19.3303C142.149 18.5606 141.434 18.1757 140.576 18.1757Z" fill="white"/>
<path d="M158.92 13.0203C160.224 13.0203 161.368 13.2082 162.351 13.5841C163.352 13.9422 163.852 14.4344 163.852 15.061C163.852 15.6875 163.611 16.4662 163.128 17.397C162.664 18.31 162.271 18.7665 161.949 18.7665C161.86 18.7665 161.752 18.7217 161.627 18.6322C161.52 18.5248 161.252 18.4174 160.823 18.31C160.412 18.1847 160.055 18.122 159.751 18.122C158.714 18.122 157.874 18.489 157.231 19.2229C156.605 19.9569 156.293 21.0846 156.293 22.6062C156.293 24.1099 156.614 25.2287 157.258 25.9626C157.919 26.6966 158.75 27.0635 159.751 27.0635C160.162 27.0635 160.617 27.0098 161.118 26.9024C161.636 26.7771 162.003 26.607 162.217 26.3922C162.253 26.3564 162.324 26.3385 162.431 26.3385C162.539 26.3385 162.735 26.5444 163.021 26.9561C163.325 27.3499 163.602 27.878 163.852 28.5403C164.102 29.1848 164.227 29.686 164.227 30.044C164.227 30.7422 163.691 31.2971 162.619 31.7088C161.547 32.1205 160.278 32.3264 158.813 32.3264C156.454 32.3264 154.514 31.494 152.995 29.8292C151.476 28.1644 150.717 25.8194 150.717 22.7942C150.717 19.751 151.494 17.3612 153.049 15.6248C154.622 13.8885 156.579 13.0203 158.92 13.0203Z" fill="white"/>
<path d="M158.92 13.0203C160.224 13.0203 161.368 13.2082 162.351 13.5841C163.352 13.9422 163.852 14.4344 163.852 15.061C163.852 15.6875 163.611 16.4662 163.128 17.397C162.664 18.31 162.271 18.7665 161.949 18.7665C161.86 18.7665 161.752 18.7217 161.627 18.6322C161.52 18.5248 161.252 18.4174 160.823 18.31C160.412 18.1847 160.055 18.122 159.751 18.122C158.714 18.122 157.874 18.489 157.231 19.2229C156.605 19.9569 156.293 21.0846 156.293 22.6062C156.293 24.1099 156.614 25.2287 157.258 25.9626C157.919 26.6966 158.75 27.0635 159.751 27.0635C160.162 27.0635 160.617 27.0098 161.118 26.9024C161.636 26.7771 162.003 26.607 162.217 26.3922C162.253 26.3564 162.324 26.3385 162.431 26.3385C162.539 26.3385 162.735 26.5444 163.021 26.9561C163.325 27.3499 163.602 27.878 163.852 28.5403C164.102 29.1848 164.227 29.686 164.227 30.044C164.227 30.7422 163.691 31.2971 162.619 31.7088C161.547 32.1205 160.278 32.3264 158.813 32.3264C156.454 32.3264 154.514 31.494 152.995 29.8292C151.476 28.1644 150.717 25.8194 150.717 22.7942C150.717 19.751 151.494 17.3612 153.049 15.6248C154.622 13.8885 156.579 13.0203 158.92 13.0203Z" fill="white"/>
<path d="M158.92 13.0203C160.224 13.0203 161.368 13.2082 162.351 13.5841C163.352 13.9422 163.852 14.4344 163.852 15.061C163.852 15.6875 163.611 16.4662 163.128 17.397C162.664 18.31 162.271 18.7665 161.949 18.7665C161.86 18.7665 161.752 18.7217 161.627 18.6322C161.52 18.5248 161.252 18.4174 160.823 18.31C160.412 18.1847 160.055 18.122 159.751 18.122C158.714 18.122 157.874 18.489 157.231 19.2229C156.605 19.9569 156.293 21.0846 156.293 22.6062C156.293 24.1099 156.614 25.2287 157.258 25.9626C157.919 26.6966 158.75 27.0635 159.751 27.0635C160.162 27.0635 160.617 27.0098 161.118 26.9024C161.636 26.7771 162.003 26.607 162.217 26.3922C162.253 26.3564 162.324 26.3385 162.431 26.3385C162.539 26.3385 162.735 26.5444 163.021 26.9561C163.325 27.3499 163.602 27.878 163.852 28.5403C164.102 29.1848 164.227 29.686 164.227 30.044C164.227 30.7422 163.691 31.2971 162.619 31.7088C161.547 32.1205 160.278 32.3264 158.813 32.3264C156.454 32.3264 154.514 31.494 152.995 29.8292C151.476 28.1644 150.717 25.8194 150.717 22.7942C150.717 19.751 151.494 17.3612 153.049 15.6248C154.622 13.8885 156.579 13.0203 158.92 13.0203Z" fill="white"/>
<path d="M178.879 32.1116C177.324 32.1116 176.484 31.861 176.359 31.3597L175.474 27.8959H171.212L170.434 31.2255C170.327 31.7804 169.469 32.0579 167.861 32.0579C167.003 32.0579 166.369 32.0131 165.958 31.9236C165.547 31.8162 165.341 31.7357 165.341 31.682L170.086 13.5036C170.086 13.3604 171.31 13.2888 173.759 13.2888C176.207 13.2888 177.431 13.3604 177.431 13.5036L182.069 31.7088C182.069 31.8341 181.658 31.9326 180.835 32.0042C180.013 32.0758 179.361 32.1116 178.879 32.1116ZM171.882 24.4858H174.697L173.49 18.9276H173.33L171.882 24.4858Z" fill="white"/>
<path d="M178.879 32.1116C177.324 32.1116 176.484 31.861 176.359 31.3597L175.474 27.8959H171.212L170.434 31.2255C170.327 31.7804 169.469 32.0579 167.861 32.0579C167.003 32.0579 166.369 32.0131 165.958 31.9236C165.547 31.8162 165.341 31.7357 165.341 31.682L170.086 13.5036C170.086 13.3604 171.31 13.2888 173.759 13.2888C176.207 13.2888 177.431 13.3604 177.431 13.5036L182.069 31.7088C182.069 31.8341 181.658 31.9326 180.835 32.0042C180.013 32.0758 179.361 32.1116 178.879 32.1116ZM171.882 24.4858H174.697L173.49 18.9276H173.33L171.882 24.4858Z" fill="white"/>
<path d="M178.879 32.1116C177.324 32.1116 176.484 31.861 176.359 31.3597L175.474 27.8959H171.212L170.434 31.2255C170.327 31.7804 169.469 32.0579 167.861 32.0579C167.003 32.0579 166.369 32.0131 165.958 31.9236C165.547 31.8162 165.341 31.7357 165.341 31.682L170.086 13.5036C170.086 13.3604 171.31 13.2888 173.759 13.2888C176.207 13.2888 177.431 13.3604 177.431 13.5036L182.069 31.7088C182.069 31.8341 181.658 31.9326 180.835 32.0042C180.013 32.0758 179.361 32.1116 178.879 32.1116ZM171.882 24.4858H174.697L173.49 18.9276H173.33L171.882 24.4858Z" fill="white"/>
<path d="M202.61 32.0847C201.019 32.0847 200.224 31.9057 200.224 31.5477L199.661 20.7803L196.391 31.682C196.319 31.8968 195.712 32.0042 194.568 32.0042C193.424 32.0042 192.834 31.9057 192.799 31.7088L189.421 20.6729L189.046 31.3866C189.028 31.6551 188.688 31.8431 188.027 31.9505C187.366 32.04 186.812 32.0847 186.365 32.0847C185.936 32.0847 185.516 32.0579 185.105 32.0042C184.247 31.8789 183.827 31.6551 183.845 31.3329L184.462 13.8795C184.462 13.4499 185.552 13.2351 187.732 13.2351C188.375 13.2351 189.162 13.2888 190.091 13.3962C191.02 13.4857 191.539 13.6736 191.646 13.9601L194.648 22.4182L197.275 13.9332C197.436 13.4678 198.669 13.2351 200.975 13.2351C201.636 13.2351 202.422 13.2888 203.334 13.3962C204.263 13.4857 204.728 13.6557 204.728 13.9064L205.505 31.5208C205.505 31.7178 205.156 31.861 204.46 31.9505C203.763 32.04 203.146 32.0847 202.61 32.0847Z" fill="white"/>
<path d="M202.61 32.0847C201.019 32.0847 200.224 31.9057 200.224 31.5477L199.661 20.7803L196.391 31.682C196.319 31.8968 195.712 32.0042 194.568 32.0042C193.424 32.0042 192.834 31.9057 192.799 31.7088L189.421 20.6729L189.046 31.3866C189.028 31.6551 188.688 31.8431 188.027 31.9505C187.366 32.04 186.812 32.0847 186.365 32.0847C185.936 32.0847 185.516 32.0579 185.105 32.0042C184.247 31.8789 183.827 31.6551 183.845 31.3329L184.462 13.8795C184.462 13.4499 185.552 13.2351 187.732 13.2351C188.375 13.2351 189.162 13.2888 190.091 13.3962C191.02 13.4857 191.539 13.6736 191.646 13.9601L194.648 22.4182L197.275 13.9332C197.436 13.4678 198.669 13.2351 200.975 13.2351C201.636 13.2351 202.422 13.2888 203.334 13.3962C204.263 13.4857 204.728 13.6557 204.728 13.9064L205.505 31.5208C205.505 31.7178 205.156 31.861 204.46 31.9505C203.763 32.04 203.146 32.0847 202.61 32.0847Z" fill="white"/>
<path d="M202.61 32.0847C201.019 32.0847 200.224 31.9057 200.224 31.5477L199.661 20.7803L196.391 31.682C196.319 31.8968 195.712 32.0042 194.568 32.0042C193.424 32.0042 192.834 31.9057 192.799 31.7088L189.421 20.6729L189.046 31.3866C189.028 31.6551 188.688 31.8431 188.027 31.9505C187.366 32.04 186.812 32.0847 186.365 32.0847C185.936 32.0847 185.516 32.0579 185.105 32.0042C184.247 31.8789 183.827 31.6551 183.845 31.3329L184.462 13.8795C184.462 13.4499 185.552 13.2351 187.732 13.2351C188.375 13.2351 189.162 13.2888 190.091 13.3962C191.02 13.4857 191.539 13.6736 191.646 13.9601L194.648 22.4182L197.275 13.9332C197.436 13.4678 198.669 13.2351 200.975 13.2351C201.636 13.2351 202.422 13.2888 203.334 13.3962C204.263 13.4857 204.728 13.6557 204.728 13.9064L205.505 31.5208C205.505 31.7178 205.156 31.861 204.46 31.9505C203.763 32.04 203.146 32.0847 202.61 32.0847Z" fill="white"/>
<path d="M210.497 32.1116C208.871 32.1116 208.058 31.9326 208.058 31.5746V14.1749C208.058 13.5662 208.335 13.2619 208.889 13.2619H213.607C216.252 13.2619 218.155 13.8079 219.317 14.8999C220.496 15.9918 221.086 17.576 221.086 19.6525C221.086 21.371 220.532 22.9463 219.424 24.3784C218.87 25.0944 218.057 25.6673 216.984 26.0969C215.912 26.5265 214.661 26.7413 213.231 26.7413V31.5477C213.231 31.7625 212.892 31.9147 212.213 32.0042C211.551 32.0758 210.98 32.1116 210.497 32.1116ZM213.231 17.9341V22.1766H213.58C214.205 22.1766 214.733 21.9797 215.161 21.5858C215.59 21.192 215.805 20.6371 215.805 19.9211C215.805 19.205 215.653 18.6949 215.349 18.3905C215.063 18.0862 214.545 17.9341 213.794 17.9341H213.231Z" fill="white"/>
<path d="M210.497 32.1116C208.871 32.1116 208.058 31.9326 208.058 31.5746V14.1749C208.058 13.5662 208.335 13.2619 208.889 13.2619H213.607C216.252 13.2619 218.155 13.8079 219.317 14.8999C220.496 15.9918 221.086 17.576 221.086 19.6525C221.086 21.371 220.532 22.9463 219.424 24.3784C218.87 25.0944 218.057 25.6673 216.984 26.0969C215.912 26.5265 214.661 26.7413 213.231 26.7413V31.5477C213.231 31.7625 212.892 31.9147 212.213 32.0042C211.551 32.0758 210.98 32.1116 210.497 32.1116ZM213.231 17.9341V22.1766H213.58C214.205 22.1766 214.733 21.9797 215.161 21.5858C215.59 21.192 215.805 20.6371 215.805 19.9211C215.805 19.205 215.653 18.6949 215.349 18.3905C215.063 18.0862 214.545 17.9341 213.794 17.9341H213.231Z" fill="white"/>
<path d="M210.497 32.1116C208.871 32.1116 208.058 31.9326 208.058 31.5746V14.1749C208.058 13.5662 208.335 13.2619 208.889 13.2619H213.607C216.252 13.2619 218.155 13.8079 219.317 14.8999C220.496 15.9918 221.086 17.576 221.086 19.6525C221.086 21.371 220.532 22.9463 219.424 24.3784C218.87 25.0944 218.057 25.6673 216.984 26.0969C215.912 26.5265 214.661 26.7413 213.231 26.7413V31.5477C213.231 31.7625 212.892 31.9147 212.213 32.0042C211.551 32.0758 210.98 32.1116 210.497 32.1116ZM213.231 17.9341V22.1766H213.58C214.205 22.1766 214.733 21.9797 215.161 21.5858C215.59 21.192 215.805 20.6371 215.805 19.9211C215.805 19.205 215.653 18.6949 215.349 18.3905C215.063 18.0862 214.545 17.9341 213.794 17.9341H213.231Z" fill="white"/>
<path d="M232.219 13.799C232.219 13.4409 233.184 13.2619 235.114 13.2619C237.062 13.2619 238.036 13.4409 238.036 13.799V26.1237C238.036 27.9496 237.384 29.4443 236.079 30.6079C234.774 31.7536 232.97 32.3264 230.664 32.3264C228.377 32.3264 226.509 31.7357 225.062 30.5542C223.632 29.3548 222.917 27.7438 222.917 25.721V13.8258C222.917 13.4678 223.882 13.2888 225.812 13.2888C227.76 13.2888 228.734 13.4678 228.734 13.8258V25.9358C228.734 26.2938 228.922 26.5802 229.297 26.795C229.69 27.0098 230.101 27.1172 230.53 27.1172C230.959 27.1172 231.343 27.0188 231.683 26.8219C232.04 26.625 232.219 26.3296 232.219 25.9358V13.799Z" fill="white"/>
<path d="M232.219 13.799C232.219 13.4409 233.184 13.2619 235.114 13.2619C237.062 13.2619 238.036 13.4409 238.036 13.799V26.1237C238.036 27.9496 237.384 29.4443 236.079 30.6079C234.774 31.7536 232.97 32.3264 230.664 32.3264C228.377 32.3264 226.509 31.7357 225.062 30.5542C223.632 29.3548 222.917 27.7438 222.917 25.721V13.8258C222.917 13.4678 223.882 13.2888 225.812 13.2888C227.76 13.2888 228.734 13.4678 228.734 13.8258V25.9358C228.734 26.2938 228.922 26.5802 229.297 26.795C229.69 27.0098 230.101 27.1172 230.53 27.1172C230.959 27.1172 231.343 27.0188 231.683 26.8219C232.04 26.625 232.219 26.3296 232.219 25.9358V13.799Z" fill="white"/>
<path d="M232.219 13.799C232.219 13.4409 233.184 13.2619 235.114 13.2619C237.062 13.2619 238.036 13.4409 238.036 13.799V26.1237C238.036 27.9496 237.384 29.4443 236.079 30.6079C234.774 31.7536 232.97 32.3264 230.664 32.3264C228.377 32.3264 226.509 31.7357 225.062 30.5542C223.632 29.3548 222.917 27.7438 222.917 25.721V13.8258C222.917 13.4678 223.882 13.2888 225.812 13.2888C227.76 13.2888 228.734 13.4678 228.734 13.8258V25.9358C228.734 26.2938 228.922 26.5802 229.297 26.795C229.69 27.0098 230.101 27.1172 230.53 27.1172C230.959 27.1172 231.343 27.0188 231.683 26.8219C232.04 26.625 232.219 26.3296 232.219 25.9358V13.799Z" fill="white"/>
<path d="M240.983 25.5061C241.322 25.7747 241.903 26.1416 242.725 26.607C243.565 27.0725 244.36 27.3052 245.111 27.3052C245.88 27.3052 246.264 27.0098 246.264 26.4191C246.264 26.1506 246.157 25.9179 245.942 25.721C245.728 25.5061 245.334 25.2645 244.763 24.996C244.191 24.7275 243.762 24.5216 243.476 24.3784C243.19 24.2173 242.806 23.9667 242.323 23.6265C241.859 23.2685 241.501 22.9016 241.251 22.5256C240.536 21.5053 240.179 20.2075 240.179 18.6322C240.179 17.0569 240.759 15.7323 241.921 14.6582C243.101 13.5662 244.637 13.0203 246.532 13.0203C247.819 13.0203 249.007 13.1635 250.097 13.4499C251.187 13.7184 251.75 14.0764 251.786 14.5239C251.786 14.5776 251.786 14.6313 251.786 14.685C251.786 15.3116 251.589 16.1082 251.196 17.0748C250.803 18.0236 250.526 18.5516 250.365 18.659C249.221 18.0683 248.194 17.773 247.282 17.773C246.389 17.773 245.942 18.0952 245.942 18.7396C245.942 19.1334 246.273 19.4825 246.934 19.7868C247.077 19.8584 247.282 19.9569 247.55 20.0822C247.819 20.2075 248.122 20.3596 248.462 20.5386C248.819 20.6998 249.195 20.9146 249.588 21.1831C249.999 21.4337 250.437 21.7738 250.901 22.2034C251.848 23.0985 252.322 24.2799 252.322 25.7478C252.322 27.6632 251.795 29.2295 250.74 30.4468C249.686 31.6641 248.06 32.2906 245.862 32.3264C244.789 32.3264 243.815 32.2369 242.94 32.0579C242.082 31.8789 241.331 31.5298 240.688 31.0107C240.045 30.4915 239.723 29.865 239.723 29.1311C239.723 28.3971 239.857 27.6722 240.125 26.9561C240.393 26.2222 240.679 25.7389 240.983 25.5061Z" fill="white"/>
<path d="M240.983 25.5061C241.322 25.7747 241.903 26.1416 242.725 26.607C243.565 27.0725 244.36 27.3052 245.111 27.3052C245.88 27.3052 246.264 27.0098 246.264 26.4191C246.264 26.1506 246.157 25.9179 245.942 25.721C245.728 25.5061 245.334 25.2645 244.763 24.996C244.191 24.7275 243.762 24.5216 243.476 24.3784C243.19 24.2173 242.806 23.9667 242.323 23.6265C241.859 23.2685 241.501 22.9016 241.251 22.5256C240.536 21.5053 240.179 20.2075 240.179 18.6322C240.179 17.0569 240.759 15.7323 241.921 14.6582C243.101 13.5662 244.637 13.0203 246.532 13.0203C247.819 13.0203 249.007 13.1635 250.097 13.4499C251.187 13.7184 251.75 14.0764 251.786 14.5239C251.786 14.5776 251.786 14.6313 251.786 14.685C251.786 15.3116 251.589 16.1082 251.196 17.0748C250.803 18.0236 250.526 18.5516 250.365 18.659C249.221 18.0683 248.194 17.773 247.282 17.773C246.389 17.773 245.942 18.0952 245.942 18.7396C245.942 19.1334 246.273 19.4825 246.934 19.7868C247.077 19.8584 247.282 19.9569 247.55 20.0822C247.819 20.2075 248.122 20.3596 248.462 20.5386C248.819 20.6998 249.195 20.9146 249.588 21.1831C249.999 21.4337 250.437 21.7738 250.901 22.2034C251.848 23.0985 252.322 24.2799 252.322 25.7478C252.322 27.6632 251.795 29.2295 250.74 30.4468C249.686 31.6641 248.06 32.2906 245.862 32.3264C244.789 32.3264 243.815 32.2369 242.94 32.0579C242.082 31.8789 241.331 31.5298 240.688 31.0107C240.045 30.4915 239.723 29.865 239.723 29.1311C239.723 28.3971 239.857 27.6722 240.125 26.9561C240.393 26.2222 240.679 25.7389 240.983 25.5061Z" fill="white"/>
<path d="M240.983 25.5061C241.322 25.7747 241.903 26.1416 242.725 26.607C243.565 27.0725 244.36 27.3052 245.111 27.3052C245.88 27.3052 246.264 27.0098 246.264 26.4191C246.264 26.1506 246.157 25.9179 245.942 25.721C245.728 25.5061 245.334 25.2645 244.763 24.996C244.191 24.7275 243.762 24.5216 243.476 24.3784C243.19 24.2173 242.806 23.9667 242.323 23.6265C241.859 23.2685 241.501 22.9016 241.251 22.5256C240.536 21.5053 240.179 20.2075 240.179 18.6322C240.179 17.0569 240.759 15.7323 241.921 14.6582C243.101 13.5662 244.637 13.0203 246.532 13.0203C247.819 13.0203 249.007 13.1635 250.097 13.4499C251.187 13.7184 251.75 14.0764 251.786 14.5239C251.786 14.5776 251.786 14.6313 251.786 14.685C251.786 15.3116 251.589 16.1082 251.196 17.0748C250.803 18.0236 250.526 18.5516 250.365 18.659C249.221 18.0683 248.194 17.773 247.282 17.773C246.389 17.773 245.942 18.0952 245.942 18.7396C245.942 19.1334 246.273 19.4825 246.934 19.7868C247.077 19.8584 247.282 19.9569 247.55 20.0822C247.819 20.2075 248.122 20.3596 248.462 20.5386C248.819 20.6998 249.195 20.9146 249.588 21.1831C249.999 21.4337 250.437 21.7738 250.901 22.2034C251.848 23.0985 252.322 24.2799 252.322 25.7478C252.322 27.6632 251.795 29.2295 250.74 30.4468C249.686 31.6641 248.06 32.2906 245.862 32.3264C244.789 32.3264 243.815 32.2369 242.94 32.0579C242.082 31.8789 241.331 31.5298 240.688 31.0107C240.045 30.4915 239.723 29.865 239.723 29.1311C239.723 28.3971 239.857 27.6722 240.125 26.9561C240.393 26.2222 240.679 25.7389 240.983 25.5061Z" fill="white"/>
</svg>
